<svg width="23" height="31" viewBox="0 0 23 31" fill="none" xmlns="http://www.w3.org/2000/svg">
<g filter="url(#filter0_d_1907_17510)">
<path d="M4.2325 11.6748L7.08633 16.5351C7.16403 16.6675 7.26707 16.7833 7.38954 16.8758C7.51202 16.9684 7.65154 17.0359 7.80013 17.0745C7.94872 17.1132 8.10346 17.1221 8.25551 17.1009C8.40756 17.0797 8.55394 17.0287 8.68628 16.9509L15.5504 12.9181C15.9659 12.6717 16.2734 12.2779 16.4117 11.8151L17.4753 8.22608C17.6839 7.52686 17.2555 6.80051 16.5394 6.63666L12.8914 5.82522C12.419 5.71302 11.9234 5.79536 11.505 6.04262L4.64846 10.0752C4.51519 10.152 4.39853 10.2546 4.3053 10.3769C4.21206 10.4993 4.14411 10.6389 4.10539 10.7878C4.06668 10.9367 4.05798 11.0918 4.0798 11.2441C4.10162 11.3963 4.15353 11.5428 4.2325 11.6748Z" fill="#404049"/>
<path d="M17.55 12.5752L11.8703 18.1518C11.7608 18.2594 11.6311 18.3443 11.4888 18.4017C11.3464 18.4592 11.1942 18.488 11.0407 18.4866C10.8872 18.4852 10.7355 18.4536 10.5942 18.3935C10.4529 18.3335 10.3249 18.2462 10.2174 18.1366L6.26689 14.113C6.04974 13.8918 5.92935 13.5934 5.93219 13.2835C5.93504 12.9735 6.06089 12.6773 6.28208 12.4602L11.9618 6.8835C12.3064 6.54454 12.7668 6.349 13.25 6.33638L16.9901 6.24458C17.7186 6.22372 18.3113 6.82742 18.2808 7.55941L18.1169 11.2932C18.0994 11.7774 17.8965 12.2364 17.55 12.5752ZM17.107 8.51682C17.1807 8.44468 17.2394 8.35873 17.2797 8.26388C17.3201 8.16904 17.3414 8.06716 17.3424 7.96408C17.3433 7.861 17.324 7.75874 17.2853 7.66316C17.2467 7.56757 17.1897 7.48054 17.1174 7.40704C17.0453 7.33336 16.9593 7.27464 16.8644 7.23423C16.7696 7.19382 16.6677 7.17252 16.5646 7.17155C16.4615 7.17057 16.3592 7.18995 16.2636 7.22856C16.1679 7.26718 16.0809 7.32427 16.0074 7.39658C15.9337 7.46873 15.875 7.55471 15.8346 7.64959C15.7942 7.74447 15.7729 7.84639 15.7719 7.94951C15.771 8.05263 15.7904 8.15493 15.829 8.25054C15.8677 8.34615 15.9248 8.4332 15.9971 8.5067C16.0693 8.58033 16.1552 8.63902 16.2501 8.6794C16.3449 8.71978 16.4468 8.74106 16.5499 8.74202C16.653 8.74298 16.7552 8.72361 16.8508 8.68501C16.9464 8.6464 17.0334 8.58933 17.1069 8.51705L17.107 8.51682Z" fill="#F7524B"/>
<path d="M6.26942 14.1132L10.2181 18.1382C10.6688 18.5984 11.4123 18.6037 11.8726 18.153L17.5501 12.5741C17.8975 12.2366 18.1001 11.7772 18.1151 11.293L18.1681 10.0474L18.1881 9.60239C16.3521 15.3524 9.19047 15.9001 7.31479 11.4468L6.28379 12.4585C6.25138 12.4897 6.22146 12.528 6.19381 12.5614C6.01244 12.7837 5.91978 13.0652 5.9337 13.3517C5.94762 13.6383 6.06736 13.9096 6.26942 14.1132Z" fill="black" fill-opacity="0.063"/>
<path d="M10.9921 15.4351C11.0263 15.4515 11.0636 15.4603 11.1015 15.4609C11.1394 15.4615 11.177 15.4539 11.2117 15.4387C11.2464 15.4234 11.2774 15.4007 11.3026 15.3723C11.3277 15.3439 11.3464 15.3104 11.3573 15.2741L12.9866 9.91055C12.9967 9.8775 13.0001 9.84278 12.9968 9.80838C12.9934 9.77399 12.9833 9.7406 12.967 9.71013C12.9507 9.67966 12.9285 9.6527 12.9018 9.63081C12.8751 9.60892 12.8443 9.59252 12.8112 9.58256C12.6722 9.54011 12.5255 9.6187 12.4832 9.75797L10.8542 15.1217C10.836 15.1818 10.8399 15.2465 10.8653 15.304C10.8906 15.3615 10.9357 15.408 10.9923 15.4352L10.9921 15.4351ZM13.5004 12.7843C13.3404 12.621 13.2517 12.4008 13.2537 12.1722C13.2558 11.9435 13.3484 11.725 13.5113 11.5645L13.5118 11.5642C13.6752 11.4045 13.8953 11.316 14.1239 11.3182C14.3524 11.3204 14.5708 11.413 14.7312 11.5758C14.8913 11.7392 14.98 11.9594 14.9779 12.1881C14.9758 12.4168 14.883 12.6353 14.72 12.7957C14.5566 12.9556 14.3364 13.0442 14.1078 13.0421C13.8792 13.0399 13.6608 12.9472 13.5004 12.7843ZM13.8804 11.9397C13.8167 12.0022 13.7805 12.0875 13.7796 12.1767C13.7787 12.2659 13.8133 12.3518 13.8757 12.4156C13.9382 12.479 14.0234 12.5151 14.1125 12.516C14.2016 12.5169 14.2874 12.4826 14.3513 12.4204C14.3897 12.3825 14.4185 12.3359 14.4352 12.2845C14.4519 12.2331 14.4559 12.1785 14.4471 12.1252C14.4383 12.0719 14.4168 12.0215 14.3844 11.9783C14.352 11.935 14.3097 11.9002 14.2611 11.8767C14.1371 11.8175 13.9839 11.838 13.8804 11.9397ZM9.1093 13.4569C8.94923 13.2935 8.86048 13.0733 8.86251 12.8446C8.86454 12.6158 8.95718 12.3973 9.12012 12.2367L9.12033 12.2363C9.28386 12.0765 9.50401 11.9881 9.73261 11.9903C9.96121 11.9925 10.1796 12.0851 10.34 12.248C10.4197 12.3286 10.4825 12.4242 10.5248 12.5293C10.5672 12.6344 10.5882 12.7468 10.5868 12.8601C10.5861 12.9734 10.5629 13.0854 10.5187 13.1896C10.4744 13.2939 10.41 13.3883 10.329 13.4675C10.2483 13.5471 10.1526 13.6099 10.0474 13.6523C9.9423 13.6947 9.8298 13.7159 9.71644 13.7146C9.60326 13.7137 9.49136 13.6905 9.38719 13.6462C9.28301 13.6019 9.1885 13.5377 9.1093 13.4569ZM9.48862 12.6125C9.42521 12.6751 9.38919 12.7603 9.38843 12.8495C9.38768 12.9386 9.42225 13.0244 9.48458 13.0882C9.54719 13.1514 9.63073 13.1877 9.72113 13.1886C9.7654 13.1892 9.80934 13.181 9.8504 13.1645C9.89146 13.1479 9.92881 13.1233 9.96028 13.0922C10.0244 13.0295 10.0602 12.9452 10.0611 12.855C10.0618 12.791 10.0441 12.7281 10.0102 12.6738C9.97635 12.6195 9.9276 12.576 9.86977 12.5486C9.74601 12.4895 9.5923 12.5105 9.48862 12.6125ZM17.4802 3.97088C17.8629 4.0486 18.1648 4.34446 18.3354 4.80465C18.4889 5.22803 18.5173 5.74283 18.4207 6.26238C18.3174 6.78406 18.0999 7.25174 17.7976 7.57944C17.4702 7.94796 17.0777 8.11007 16.6927 8.0371C16.6126 8.02218 16.5368 7.99765 16.4657 7.96373C16.1904 7.83224 15.9786 7.56772 15.8426 7.20548C15.6867 6.78708 15.6608 6.26763 15.7571 5.74821C15.9811 4.60763 16.7364 3.8313 17.4802 3.97088ZM16.2743 5.84928C16.1927 6.27682 16.2144 6.69507 16.3331 7.02016C16.3951 7.18367 16.539 7.46827 16.794 7.52005C17.0561 7.56935 17.2898 7.36032 17.4099 7.23119C17.6455 6.97054 17.8221 6.58838 17.9036 6.16108C17.9851 5.73377 17.9613 5.31981 17.84 4.98792C17.7904 4.84752 17.678 4.61909 17.4834 4.52618C17.4502 4.5103 17.4169 4.49442 17.3839 4.49031C16.9991 4.41744 16.451 4.95427 16.2743 5.84928Z" fill="#F0F0FC"/>
<path d="M16.7547 6.24674C16.7899 6.56156 16.7774 6.8799 16.7178 7.19102C16.4696 7.13643 16.2026 7.20733 16.0083 7.39433C15.8995 7.49993 15.8316 7.63059 15.8009 7.76763C15.6199 7.5006 15.4981 7.19793 15.4437 6.87995C15.4085 6.68203 15.4009 6.48016 15.4212 6.28015L16.7547 6.24674Z" fill="#F7524B"/>
</g>
<defs>
<filter id="filter0_d_1907_17510" x="0.0683594" y="3.95459" width="22.4082" height="26.5327" filterUnits="userSpaceOnUse" color-interpolation-filters="sRGB">
<feFlood flood-opacity="0" result="BackgroundImageFix"/>
<feColorMatrix in="SourceAlpha" type="matrix" values="0 0 0 0 0 0 0 0 0 0 0 0 0 0 0 0 0 0 127 0" result="hardAlpha"/>
<feOffset dy="8"/>
<feGaussianBlur stdDeviation="2"/>
<feComposite in2="hardAlpha" operator="out"/>
<feColorMatrix type="matrix" values="0 0 0 0 0 0 0 0 0 0 0 0 0 0 0 0 0 0 0.25 0"/>
<feBlend mode="normal" in2="BackgroundImageFix" result="effect1_dropShadow_1907_17510"/>
<feBlend mode="normal" in="SourceGraphic" in2="effect1_dropShadow_1907_17510" result="shape"/>
</filter>
</defs>
</svg>
