<svg width="517" height="512" viewBox="0 0 517 512" fill="none" xmlns="http://www.w3.org/2000/svg">
<path d="M448.639 440.436C435.364 454.119 423.486 462.163 414.392 468.235C325.699 527.456 224.313 510.387 192.967 504.553C142.394 495.14 99.7038 488.5 63.0249 455.362C-20.3205 380.063 -16.2667 222.983 47.4193 125.679C54.9705 114.141 118.56 19.882 220.165 6.59994C222.651 6.27517 224.505 6.09007 226.129 5.91816C241.847 4.25394 339.249 -4.52933 418.671 62.0101C430.039 71.5349 448.335 88.7152 465.301 114.918C527.337 210.727 527.534 359.114 448.639 440.436Z" fill="#F3E0C8"/>
<path d="M225.179 1.82854C213.077 2.8809 203.799 13.0162 203.764 25.1638C203.554 99.451 203.206 355.688 208.048 446.381C208.561 455.989 216.438 463.537 226.06 463.641C273.647 464.153 410.53 465.094 488.239 460.124C504.424 459.088 517.019 445.683 517 429.464C516.905 351.497 515.66 132.227 504.979 32.001C503.7 19.9924 494.047 10.619 482.007 9.68083C430.105 5.63687 292.281 -4.00725 225.179 1.82854Z" fill="#1A1A1A"/>
<path d="M222.868 44.632C221.933 108.178 219.273 319.57 223.918 397.591C224.596 408.995 233.455 417.998 244.393 418.379C289.427 419.948 404.911 422.985 470.715 415.745C482.565 414.441 491.621 404.17 491.936 391.734C493.582 326.885 498.029 129.998 493.514 52.8498C492.794 40.5424 483.391 30.7221 471.605 29.928C422.843 26.6423 297.629 19.065 241.671 23.725C231.166 24.5998 223.03 33.6307 222.868 44.632Z" fill="#FF914C"/>
<path d="M331.676 12.8773C331.714 14.6329 333.114 16.0508 334.869 16.1041C343.535 16.3675 367.946 17.1147 378.856 17.5079C381.008 17.5853 382.651 15.6171 382.198 13.5127C382.16 13.4464 381.881 10.7484 379.125 10.5569C371.745 10.0437 349.478 8.66011 334.764 9.50908C331.742 9.68325 331.578 13.1195 331.676 12.8773Z" fill="#1F5AA9"/>
<path opacity="0.24" d="M451.78 398.623H252.174C242.2 398.623 234.115 385.209 234.115 368.661V67.5062C234.115 52.9105 241.247 41.0781 250.044 41.0781H460.852C470.985 41.0781 479.199 54.7068 479.199 71.5186V353.131C479.199 378.255 466.923 398.623 451.78 398.623Z" fill="white"/>
<g opacity="0.67">
<path d="M465.034 94.4081L390.45 93.2694C389.209 93.2505 388.21 92.2198 388.229 90.9792L388.402 79.6412C388.421 78.4005 389.451 77.401 390.692 77.4198L465.276 78.5585C466.516 78.5774 467.516 79.608 467.497 80.8487L467.324 92.1867C467.305 93.4273 466.274 94.4271 465.034 94.4081Z" fill="#FFFCF9"/>
<path d="M464.565 126.873L389.981 125.734C388.741 125.715 387.741 124.685 387.76 123.444L387.933 112.106C387.952 110.865 388.983 109.866 390.223 109.885L464.807 111.023C466.048 111.042 467.047 112.073 467.028 113.313L466.855 124.651C466.836 125.892 465.806 126.892 464.565 126.873Z" fill="#FFFCF9"/>
<path d="M464.042 159.338L389.458 158.199C388.217 158.18 387.218 157.15 387.237 155.909L387.41 144.571C387.429 143.33 388.459 142.331 389.7 142.35L464.283 143.488C465.524 143.507 466.524 144.538 466.505 145.778L466.332 157.116C466.313 158.357 465.282 159.357 464.042 159.338Z" fill="#FFFCF9"/>
</g>
<g opacity="0.58">
<path d="M463.141 252.563H280.274C278.872 252.563 277.725 251.416 277.725 250.014V235.508C277.725 234.106 278.872 232.959 280.274 232.959H463.141C464.543 232.959 465.69 234.106 465.69 235.508V250.014C465.691 251.416 464.543 252.563 463.141 252.563Z" fill="#FFFCF9"/>
<path d="M253.615 254.586C259.635 254.586 264.516 249.265 264.516 242.701C264.516 236.137 259.635 230.816 253.615 230.816C247.595 230.816 242.715 236.137 242.715 242.701C242.715 249.265 247.595 254.586 253.615 254.586Z" fill="#FFFCF9"/>
<path d="M463.141 289.35H280.274C278.872 289.35 277.725 288.203 277.725 286.801V272.295C277.725 270.893 278.872 269.746 280.274 269.746H463.141C464.543 269.746 465.69 270.893 465.69 272.295V286.801C465.691 288.203 464.543 289.35 463.141 289.35Z" fill="#FFFCF9"/>
<path d="M253.615 291.374C259.635 291.374 264.516 286.053 264.516 279.489C264.516 272.925 259.635 267.604 253.615 267.604C247.595 267.604 242.715 272.925 242.715 279.489C242.715 286.053 247.595 291.374 253.615 291.374Z" fill="#FFFCF9"/>
<path d="M463.141 326.138H280.274C278.872 326.138 277.725 324.991 277.725 323.589V309.083C277.725 307.681 278.872 306.534 280.274 306.534H463.141C464.543 306.534 465.69 307.681 465.69 309.083V323.589C465.691 324.991 464.543 326.138 463.141 326.138Z" fill="#FFFCF9"/>
<path d="M253.615 328.161C259.635 328.161 264.516 322.84 264.516 316.276C264.516 309.712 259.635 304.391 253.615 304.391C247.595 304.391 242.715 309.712 242.715 316.276C242.715 322.84 247.595 328.161 253.615 328.161Z" fill="#FFFCF9"/>
<path d="M463.141 362.925H280.274C278.872 362.925 277.725 361.778 277.725 360.376V345.87C277.725 344.468 278.872 343.321 280.274 343.321H463.141C464.543 343.321 465.69 344.468 465.69 345.87V360.376C465.691 361.778 464.543 362.925 463.141 362.925Z" fill="#FFFCF9"/>
<path d="M253.615 364.949C259.635 364.949 264.516 359.627 264.516 353.063C264.516 346.499 259.635 341.178 253.615 341.178C247.595 341.178 242.715 346.499 242.715 353.063C242.715 359.627 247.595 364.949 253.615 364.949Z" fill="#FFFCF9"/>
</g>
<path d="M339.832 291.321L329.632 294.834L313.618 248.338C307.329 230.076 313.964 210.527 329.053 202.865L348.909 192.784C357.455 188.445 367.594 188.552 376.726 193.08C385.857 197.608 393.137 206.137 396.699 216.481L409.344 253.193C410.082 255.335 409.162 257.595 407.289 258.24L400.48 260.585L386.5 219.994C384.087 212.987 379.155 207.21 372.97 204.143C366.785 201.076 359.917 201.003 354.129 203.943L334.273 214.024C324.04 219.22 319.552 232.439 323.818 244.824L339.832 291.321Z" fill="#FFFCF9"/>
<path d="M315.151 280.689L409.714 275.45C413.555 275.237 416.786 278.295 416.786 282.141V357.055C416.786 360.756 413.786 363.756 410.085 363.756H317.793C314.178 363.756 311.214 360.888 311.096 357.274L308.824 287.599C308.705 283.959 311.515 280.891 315.151 280.689Z" fill="#FFFCF9"/>
<path d="M378.219 342.296L372.496 325.841C371.808 323.862 372.276 321.65 373.748 320.16C376.681 317.188 378.429 313.043 378.222 308.492C377.857 300.465 371.3 293.957 363.27 293.649C354.385 293.307 347.074 300.409 347.074 309.219C347.074 314.106 349.325 318.466 352.846 321.322C354.673 322.803 355.423 325.238 354.651 327.459L349.49 342.296C348.235 345.904 350.914 349.672 354.735 349.672H372.975C376.795 349.672 379.474 345.904 378.219 342.296Z" fill="#1A1A1A"/>
<path opacity="0.34" d="M269.226 92.0391C95.4334 49.6479 -32.5511 167.104 59.8999 329.609H174.073C94.4749 246.28 185.454 158.583 264.516 113.434L269.226 92.0391Z" fill="white"/>
<path d="M203.679 142.641C214.885 131.434 214.885 113.266 203.679 102.059C192.472 90.8531 174.304 90.8531 163.097 102.059C151.891 113.266 151.891 131.434 163.097 142.641C174.304 153.847 192.472 153.847 203.679 142.641Z" fill="#1A1A1A"/>
<g opacity="0.9">
<path d="M183.786 141.161C173.422 141.161 164.99 132.729 164.99 122.365C164.99 112.001 173.422 103.57 183.786 103.57C194.15 103.57 202.581 112.001 202.581 122.365C202.581 132.729 194.15 141.161 183.786 141.161ZM183.786 106.72C175.159 106.72 168.14 113.738 168.14 122.365C168.14 130.993 175.159 138.011 183.786 138.011C192.413 138.011 199.432 130.993 199.432 122.365C199.432 113.738 192.413 106.72 183.786 106.72Z" fill="#F3E0C8"/>
<path fill-rule="evenodd" clip-rule="evenodd" d="M177.896 129.604V116.091C177.896 114.647 179.468 113.752 180.71 114.489L192.096 121.245C193.312 121.967 193.312 123.728 192.096 124.449L180.71 131.206C179.468 131.942 177.896 131.048 177.896 129.604Z" fill="#F3E0C8"/>
</g>
<path d="M85.1732 253.168C99.7529 238.588 99.753 214.95 85.1733 200.37C70.5936 185.791 46.9553 185.791 32.3755 200.371C17.7958 214.95 17.7957 238.589 32.3754 253.168C46.9551 267.748 70.5934 267.748 85.1732 253.168Z" fill="#1A1A1A"/>
<path d="M83.2734 247.416C83.2734 248.159 82.6716 248.761 81.9293 248.761H35.4867C34.7444 248.761 34.1426 248.159 34.1426 247.416V208.437C34.1426 207.694 34.7444 207.093 35.4867 207.093H81.9293C82.6716 207.093 83.2734 207.694 83.2734 208.437V247.416ZM37.252 245.029H80.7857V209.58H37.252V245.029Z" fill="#F3E0C8"/>
<path d="M71.0972 220.694C70.7285 220.216 70.1439 219.934 69.54 219.93C68.9361 219.926 68.3561 220.201 67.9813 220.674L58.0886 233.165C57.7482 233.595 57.2413 233.863 56.6947 233.904C56.1479 233.945 55.608 233.755 55.2075 233.38L47.6645 226.324C46.9192 225.627 45.6608 225.618 44.9044 226.303L35.3867 234.836V246.894H82.03V234.836L71.0972 220.694Z" fill="#F3E0C8"/>
<path d="M51.5557 219.998C53.4149 218.139 53.4149 215.125 51.5557 213.266C49.6966 211.407 46.6824 211.407 44.8233 213.266C42.9641 215.125 42.9642 218.139 44.8233 219.998C46.6824 221.857 49.6966 221.857 51.5557 219.998Z" fill="#F3E0C8"/>
<path d="M138.181 194.061C150.688 181.553 150.688 161.274 138.181 148.767C125.673 136.259 105.395 136.26 92.8871 148.767C80.3796 161.275 80.3795 181.553 92.887 194.061C105.394 206.568 125.673 206.568 138.181 194.061Z" fill="#1A1A1A"/>
<path d="M115.649 196.981C113.525 196.981 111.601 195.896 110.501 194.079C104.303 183.839 96.9141 170.351 96.9141 164.252C96.9141 154.72 105.319 146.965 115.649 146.965C125.979 146.965 134.384 154.72 134.384 164.252C134.384 170.352 126.995 183.839 120.797 194.08C119.697 195.896 117.772 196.981 115.649 196.981ZM115.649 149.363C106.641 149.363 99.3117 156.042 99.3117 164.252C99.3117 168.517 104.138 178.936 112.553 192.838C113.214 193.931 114.372 194.584 115.649 194.584C116.926 194.584 118.084 193.931 118.745 192.838C127.16 178.937 131.986 168.517 131.986 164.252C131.986 156.042 124.657 149.363 115.649 149.363Z" fill="#F3E0C8"/>
<path d="M114.196 176.322C107.791 176.322 102.58 171.111 102.58 164.706C102.58 164.044 103.117 163.507 103.779 163.507C104.441 163.507 104.978 164.044 104.978 164.706C104.978 169.789 109.113 173.924 114.196 173.924C119.279 173.924 123.414 169.789 123.414 164.706C123.414 159.623 119.279 155.488 114.196 155.488C111.257 155.488 108.562 156.841 106.802 159.2C106.406 159.731 105.655 159.841 105.124 159.445C104.593 159.049 104.484 158.298 104.88 157.767C107.064 154.838 110.547 153.09 114.196 153.09C120.601 153.09 125.812 158.301 125.812 164.706C125.812 171.111 120.601 176.322 114.196 176.322Z" fill="#F3E0C8"/>
<path d="M125.179 408.998H117.404V493.074H125.179V408.998Z" fill="#FFFCF9"/>
<path d="M87.2461 494.695H155.339V491.621C155.339 490.524 154.45 489.635 153.352 489.635H89.3874C88.2048 489.635 87.2461 490.593 87.2461 491.776V494.695Z" fill="#FFFCF9"/>
<path d="M74.3691 405.897C74.3691 410.784 78.3675 414.782 83.2544 414.782H156.47C161.357 414.782 165.356 410.784 165.356 405.897V397.863C165.356 392.976 161.357 388.977 156.47 388.977H83.2546C78.3677 388.977 74.3693 392.976 74.3693 397.863L74.3691 405.897Z" fill="#FFFCF9"/>
<path d="M164.595 478.179C164.595 478.179 186.796 494.181 182.941 504.932C182.941 504.932 158.651 494.452 155.716 486.196C152.782 477.941 156.213 474.295 156.213 474.295L164.595 478.179Z" fill="#1A1A1A"/>
<path d="M161.259 464.769L157.629 475.263C157.081 476.847 157.629 478.65 159.046 479.545C159.755 479.993 160.725 480.408 162.05 480.708C163.92 481.132 165.85 480.268 166.749 478.575L171.092 470.398L161.259 464.769Z" fill="url(#paint0_linear_848_4336)"/>
<path d="M125.933 370.311C125.933 370.311 171.532 378.214 191.092 396.283C210.652 414.353 173.139 471.991 173.139 471.991C173.139 471.991 166.992 471.953 159.544 465.569C159.544 465.569 181.787 422.22 162.618 409.578C141.067 395.366 116.23 392.165 116.23 392.165L125.492 371.704L125.933 370.311Z" fill="#1A1A1A"/>
<path d="M179.084 498.986C174.201 496.726 160.377 487.051 158.047 486.623C155.717 486.197 151.675 488.935 151.675 488.935C151.675 488.935 150.692 490.703 151.743 493.787C154.988 497.713 162.192 505.197 171.877 507.986C179.002 510.037 183.985 508.125 187.088 505.887C185.381 503.287 182.336 500.492 179.084 498.986Z" fill="#1A1A1A"/>
<path d="M171.878 507.986C162.193 505.197 154.989 497.713 151.744 493.787C152.455 495.871 154.093 498.555 157.595 501.702C166.278 509.507 182.863 512.32 186.394 511.778C189.224 511.343 188.957 508.731 187.089 505.887C183.986 508.125 179.002 510.037 171.878 507.986Z" fill="#1A1A1A"/>
<path d="M147.533 482.105C147.588 483.45 150.338 488.064 151.945 490.652C152.708 491.882 154.046 492.634 155.494 492.638C156.412 492.64 157.468 492.56 158.427 492.285C159.866 491.872 160.674 490.339 160.253 488.902L157.113 478.18L147.533 482.105Z" fill="url(#paint1_linear_848_4336)"/>
<path d="M82.0398 356.624C82.0398 356.624 71.9131 383.702 82.0398 391.937C92.1665 400.171 116.324 409.442 121.721 425.843C127.118 442.245 136.276 474.12 148.532 485.409C148.532 485.409 157.143 484.575 160.365 481.144C160.365 481.144 153.385 433.559 148.781 421.349C144.795 410.775 138.921 395.513 127.664 386.983C124.442 384.541 125.003 380.673 126.498 376.916L129.218 370.075L82.0398 356.624Z" fill="#1A1A1A"/>
<path d="M187.655 335.401C170.676 336.425 175.967 309.298 176.273 308.219L150.502 326.422C150.502 326.422 151.866 340.928 173.292 348.538C178.713 350.463 183.668 350.548 188.048 349.607C186.18 344.159 186.56 339.271 187.655 335.401Z" fill="#1A1A1A"/>
<path d="M220.487 327.237C214.159 322.835 206.991 327.237 206.991 327.237C198.531 332.769 192.272 335.123 187.655 335.401C186.56 339.271 186.18 344.159 188.048 349.607C197.525 347.569 204.306 340.71 207.252 337.191C208.313 335.924 210.191 335.704 211.489 336.727C212.806 337.768 214.085 339.192 213.854 340.692C213.396 343.648 216.827 344.588 217.086 343.516C217.344 342.444 215.912 336.087 215.912 336.087C215.912 336.087 222.774 342.987 225.453 345.639C228.131 348.291 231.5 345.639 231.5 345.639C231.5 345.639 226.814 331.638 220.487 327.237Z" fill="url(#paint2_linear_848_4336)"/>
<path d="M108.483 266.326C108.483 266.326 133.185 256.436 179.157 294.39C179.157 294.39 182.997 302.338 178.808 309.413C174.619 316.487 134.705 350.959 129.219 370.075C129.219 370.075 105.44 377.802 80.8477 359.48C80.8477 359.48 83.0178 306.276 108.483 266.326Z" fill="#1A1A1A"/>
<path d="M159.788 254.404L145.156 272.242C143.948 273.705 143.682 275.741 144.517 277.445C146.205 280.888 150.21 285.9 159.092 285.207C161.734 285.001 164.074 283.407 165.228 281.021L173.731 263.444L159.788 254.404Z" fill="url(#paint3_linear_848_4336)"/>
<path d="M89.3569 329.463C86.4891 317.784 115.536 291.747 115.536 291.747L108.482 266.326C108.482 266.326 45.7604 308.081 61.7444 341.658C64.0357 346.472 67.0789 349.844 70.6074 352.098C75.6577 338.504 83.7064 332.269 89.3569 329.463Z" fill="#1A1A1A"/>
<path d="M89.337 327.763C89.0288 327.763 88.7482 327.554 88.6713 327.24C85.7388 315.3 113.861 289.925 115.059 288.85C115.34 288.598 115.774 288.621 116.028 288.903C116.281 289.185 116.257 289.619 115.976 289.872C115.688 290.13 87.2666 315.766 90.0041 326.913C90.0944 327.281 89.8691 327.653 89.501 327.743C89.4469 327.757 89.3915 327.763 89.337 327.763Z" fill="#1A1A1A"/>
<path d="M133.352 328.458C133.352 328.458 98.9136 341.829 90.5073 331.772C89.9373 331.09 89.5656 330.313 89.3569 329.463C83.7065 332.269 75.6577 338.504 70.6074 352.098C88.72 363.672 119.68 345.66 128.051 340.349C129.428 339.476 131.08 339.17 132.677 339.501C135.906 340.17 141.484 341.155 144.492 340.691C148.893 340.013 155.214 355.537 162.346 350.749C162.346 350.749 156.239 323.765 133.352 328.458Z" fill="url(#paint4_linear_848_4336)"/>
<path d="M183.776 235.846C183.899 236.32 180.926 268.546 180.926 268.546L162.562 266.457L160.842 235.495C160.842 235.495 181.728 227.912 183.776 235.846Z" fill="url(#paint5_linear_848_4336)"/>
<path d="M165.624 241.912L165.253 258.282C165.248 258.492 165.271 258.696 165.323 258.9C165.643 260.144 167.056 264.347 171.267 262.639C175.089 261.089 178.599 259.731 181.181 260.221C182.34 260.441 183.141 261.502 183.033 262.677C182.762 265.605 182.029 272.191 180.52 277.816C180.214 278.958 179.078 279.664 177.914 279.459C174.407 278.841 167.046 277.332 161.41 274.73C160.646 274.377 160.133 273.645 160.077 272.806C159.802 268.714 158.919 256.28 158.137 252.853C157.404 249.636 153.191 248.124 151.377 247.614C150.783 247.448 150.287 247.048 149.997 246.503C148.971 244.575 147.35 240.032 153.019 237.476C154.205 236.94 154.708 235.543 154.137 234.373C153 232.045 152.227 228.386 156.551 225.849C160.946 223.27 164.669 225.356 166.752 227.154C167.595 227.88 168.818 227.871 169.688 227.178C170.183 226.783 170.857 226.597 171.742 227.023C172.935 227.596 174.362 226.959 174.808 225.713C175.666 223.32 177.654 220.639 182.265 220.917C190.445 221.411 192.331 230.209 190.785 235.656C189.239 241.103 180.4 240.063 175.787 237.909C172.28 236.271 168.244 238.834 166.511 240.157C165.962 240.575 165.64 241.222 165.624 241.912Z" fill="#1A1A1A"/>
<path d="M158.883 259.043C158.883 259.043 160.349 249.208 156.709 247.316C153.069 245.425 148.175 247.152 150.016 253.727C152.306 261.905 158.883 259.043 158.883 259.043Z" fill="url(#paint6_linear_848_4336)"/>
<path d="M183.248 237.558C184.004 237.399 184.725 237.169 185.419 236.91C186.108 236.637 186.765 236.308 187.342 235.878C187.938 235.468 188.403 234.912 188.785 234.302C189.187 233.69 189.39 232.971 189.613 232.227C189.646 232.988 189.605 233.812 189.241 234.538C188.915 235.27 188.393 235.938 187.733 236.406C186.418 237.348 184.785 237.731 183.248 237.558Z" fill="white"/>
<path d="M150.996 354.825C151.051 354.828 151.106 354.829 151.162 354.829L223.419 354.75C225.205 354.748 226.651 353.299 226.65 351.513C226.648 349.726 225.193 348.25 223.412 348.282L151.155 348.361C149.368 348.362 147.922 349.812 147.924 351.598C147.926 353.329 149.287 354.741 150.996 354.825Z" fill="#1A1A1A"/>
<path d="M288.374 289.22H228.199C223.759 289.22 219.719 291.782 217.825 295.797L190.006 354.786H264.789C267.649 354.786 270.22 353.038 271.271 350.378L292.844 295.792C294.09 292.638 291.766 289.22 288.374 289.22Z" fill="#1A1A1A"/>
<path d="M278.62 509.802C279.021 509.802 279.427 509.725 279.819 509.562C281.359 508.92 282.071 507.191 281.408 505.7L217.727 362.38C217.065 360.889 215.28 360.201 213.738 360.841C212.197 361.483 211.486 363.212 212.148 364.703L275.83 508.023C276.324 509.136 277.444 509.802 278.62 509.802Z" fill="#1A1A1A"/>
<path d="M206.879 509.802C208.056 509.802 209.176 509.136 209.67 508.023L273.351 364.703C274.014 363.212 273.302 361.483 271.762 360.841C270.223 360.199 268.436 360.888 267.773 362.38L204.092 505.7C203.429 507.191 204.141 508.92 205.681 509.562C206.072 509.725 206.479 509.802 206.879 509.802Z" fill="#1A1A1A"/>
<path d="M81.4973 509.802C81.8976 509.802 82.3042 509.725 82.6957 509.562C84.2361 508.92 84.9478 507.191 84.2851 505.7L20.6038 362.38C19.941 360.889 18.1569 360.201 16.6145 360.841C15.0741 361.483 14.3626 363.212 15.0253 364.703L78.7064 508.023C79.2008 509.136 80.3207 509.802 81.4973 509.802Z" fill="#1A1A1A"/>
<path d="M9.7586 509.802C10.9354 509.802 12.055 509.136 12.5493 508.023L76.2304 364.703C76.8931 363.212 76.1814 361.483 74.6412 360.841C73.1017 360.199 71.315 360.888 70.6519 362.38L6.97058 505.7C6.30784 507.191 7.01959 508.92 8.55997 509.562C8.95128 509.725 9.35824 509.802 9.7586 509.802Z" fill="#1A1A1A"/>
<path d="M2.29049 357.955C2.12801 357.015 2.34911 356.043 2.89348 355.304C3.43767 354.566 4.24819 354.138 5.10339 354.138H294.807C295.931 354.138 296.979 354.78 297.584 355.84C298.19 356.901 298.272 358.235 297.8 359.378L294.661 366.985C293.942 368.727 292.384 369.842 290.67 369.842H7.09125C5.49696 369.842 4.12624 368.576 3.82352 366.824L2.29049 357.955Z" fill="#1A1A1A"/>
<path d="M151.743 284.426C151.743 284.426 147.759 269.495 149.187 266.836C150.614 264.177 151.743 263.737 151.743 263.737C151.743 263.737 140.227 255 132.16 259.387C124.093 263.774 125.504 266.396 127.521 269.421C129.538 272.446 148.938 285.212 151.743 284.426Z" fill="#1A1A1A"/>
<path d="M151.742 284.426C151.742 284.426 163.219 287.733 166.849 284.426C170.479 281.119 166.261 278.001 166.261 278.001C166.261 278.001 156.486 286.044 151.742 284.426Z" fill="#1A1A1A"/>
<path d="M264.149 319.305H246.263C245.064 314.616 240.812 311.149 235.749 311.149C229.755 311.149 224.896 316.008 224.896 322.001C224.896 327.995 229.755 332.854 235.749 332.854C241.051 332.854 245.462 329.05 246.41 324.023H251.522V326.753C251.522 327.777 252.352 328.607 253.376 328.607H253.443C254.467 328.607 255.297 327.777 255.297 326.753V324.023H260.015V328.236C260.015 329.26 260.845 330.09 261.869 330.09H261.936C262.96 330.09 263.79 329.26 263.79 328.236V324.023H264.149C265.44 324.023 266.486 322.977 266.486 321.687V321.642C266.486 320.351 265.44 319.305 264.149 319.305ZM235.749 328.697C232.051 328.697 229.053 325.699 229.053 322.001C229.053 318.303 232.051 315.306 235.749 315.306C239.447 315.306 242.445 318.303 242.445 322.001C242.445 325.699 239.447 328.697 235.749 328.697Z" fill="white"/>
<path d="M305.833 178.538C341.789 178.538 370.937 149.39 370.937 113.434C370.937 77.4779 341.789 48.3298 305.833 48.3298C269.877 48.3298 240.729 77.4779 240.729 113.434C240.729 149.39 269.877 178.538 305.833 178.538Z" fill="white"/>
<mask id="mask0_848_4336" style="mask-type:luminance" maskUnits="userSpaceOnUse" x="247" y="55" width="117" height="117">
<path d="M305.836 171.414C337.857 171.414 363.816 145.456 363.816 113.434C363.816 81.4125 337.857 55.4539 305.836 55.4539C273.814 55.4539 247.855 81.4125 247.855 113.434C247.855 145.456 273.814 171.414 305.836 171.414Z" fill="white"/>
</mask>
<g mask="url(#mask0_848_4336)">
<path d="M292.153 75.5189C292.153 75.5189 290.144 83.9748 284.734 79.3092C279.323 74.6434 272.633 67.742 265.068 73.6705C257.503 79.5991 266.477 84.508 266.477 84.508C266.477 84.508 263.029 82.7433 260.433 85.5295C259.687 86.3302 258.495 86.4776 257.607 85.8386C256.769 85.2358 255.611 84.9133 254.214 85.8194C253.115 86.5322 250.055 93.4719 252.852 105.777C254.517 113.105 259.36 134.212 275.937 138.223C286.76 140.841 296.003 134.575 296.815 134.006C305.894 127.647 307.623 117.919 307.906 116.147C307.399 114.196 305.012 104.224 310.798 96.1257C312.113 94.2845 315.946 89.531 321.859 88.6477C323.131 88.4577 324.456 88.7094 326.301 89.3067C326.301 89.3067 327.856 98.0059 333.606 97.6823C333.606 97.6823 333.039 95.4953 335.275 94.2159C337.417 92.9895 342.535 86.7049 333.848 81.15C333.158 80.7089 332.797 79.9089 332.87 79.0937C333.105 76.4633 332.513 70.4397 323.629 65.4936C312.339 59.2083 304.516 60.4595 300.334 66.704C300.031 67.1567 299.554 67.4632 299.021 67.5754C297.227 67.9539 293.121 69.4752 292.153 75.5189Z" fill="#1A1A1A"/>
<path d="M302.58 119.72L306.542 139.9L326.612 138.099L322.728 116.847L302.58 119.72Z" fill="#F3E0C8"/>
<path d="M333.043 88.7745C333.043 88.7745 337.33 88.7745 338.044 95.2045C338.758 101.634 330.9 104.492 330.9 104.492L326.613 103.778L328.756 90.2035L333.043 88.7745Z" fill="#1A1A1A"/>
<path d="M295.295 102.944C295.295 102.944 298.112 124.619 310.747 128.346C323.383 132.073 329.021 112.407 329.831 111.03C329.831 111.03 332.585 112.65 333.493 109.848C334.4 107.045 338.45 100.161 332.035 99.7231C332.035 99.7231 333.947 92.6926 332.052 88.9829C330.157 85.2731 326.464 76.428 317.052 77.9339C307.64 79.4399 296.025 92.253 295.295 102.944Z" fill="#F3E0C8"/>
<path d="M331.09 79.315C330.379 78.9096 329.978 78.129 330.009 77.3109C330.11 74.6718 329.213 68.6862 320.089 64.1978C308.494 58.4939 300.745 60.1408 296.886 66.5896C296.606 67.057 296.145 67.3875 295.618 67.5268C293.846 67.9959 289.823 69.7239 289.163 75.8088C289.163 75.8088 288.448 79.6666 286.268 80.8667C291.486 85.2039 293.801 100.415 293.907 100.619C295.541 101.016 301.566 101.873 308.829 95.4422C317.537 87.7332 318.277 86.3168 323.966 87.8446C323.966 87.8446 328.072 96.4205 333.799 95.8052C333.799 95.8052 332.29 94.0336 334.458 92.6423C336.536 91.3085 340.048 84.4213 331.09 79.315Z" fill="#1A1A1A"/>
<path d="M296.67 103.755C296.67 103.755 296.962 99.4778 293.349 99.9475C289.737 100.417 293.34 111.115 296.665 109.338L296.67 103.755Z" fill="#F3E0C8"/>
<path d="M305.09 132.498L291.717 137.499L308.266 155.659L338.038 136.714C335.69 135.837 334.21 134.13 331.954 133.525C329.732 132.928 327.557 132.365 325.433 131.64L305.09 132.498Z" fill="#F3E0C8"/>
<path d="M283.069 183.319C284.781 178.572 286.1 175.927 286.1 175.927L274.525 146.431C274.525 146.431 269.035 157.671 264.525 172.676C262.932 177.978 266.894 183.319 272.431 183.319L283.069 183.319Z" fill="#1A1A1A"/>
<path d="M363.209 173.107C360.567 157.844 356.358 147.199 356.358 147.199L340.834 169.456C342.982 174.245 344.6 178.911 345.776 183.319H354.631C360.041 183.319 364.131 178.438 363.209 173.107Z" fill="#F3E0C8"/>
<path d="M345.424 183.319L356.303 148.148C357.611 146.112 347.406 137.431 330.303 132.771C328.447 141.808 299.848 141.335 299.566 134.57C286.428 139.289 274.584 142.893 273.623 148.361C274.096 158.795 276.774 170.434 280.297 183.318L345.424 183.319Z" fill="#1A1A1A"/>
</g>
<defs>
<linearGradient id="paint0_linear_848_4336" x1="157.42" y1="472.792" x2="171.092" y2="472.792" gradientUnits="userSpaceOnUse">
<stop stop-color="#FEBBBA"/>
<stop offset="1" stop-color="#FF928E"/>
</linearGradient>
<linearGradient id="paint1_linear_848_4336" x1="147.533" y1="485.409" x2="160.364" y2="485.409" gradientUnits="userSpaceOnUse">
<stop stop-color="#FEBBBA"/>
<stop offset="1" stop-color="#FF928E"/>
</linearGradient>
<linearGradient id="paint2_linear_848_4336" x1="186.74" y1="337.444" x2="231.5" y2="337.444" gradientUnits="userSpaceOnUse">
<stop stop-color="#FEBBBA"/>
<stop offset="1" stop-color="#FF928E"/>
</linearGradient>
<linearGradient id="paint3_linear_848_4336" x1="144.033" y1="269.839" x2="173.731" y2="269.839" gradientUnits="userSpaceOnUse">
<stop stop-color="#FEBBBA"/>
<stop offset="1" stop-color="#FF928E"/>
</linearGradient>
<linearGradient id="paint4_linear_848_4336" x1="123.782" y1="337.982" x2="10.0834" y2="535.556" gradientUnits="userSpaceOnUse">
<stop stop-color="#FEBBBA"/>
<stop offset="1" stop-color="#FF928E"/>
</linearGradient>
<linearGradient id="paint5_linear_848_4336" x1="176.776" y1="237.875" x2="153.101" y2="294.71" gradientUnits="userSpaceOnUse">
<stop stop-color="#FEBBBA"/>
<stop offset="1" stop-color="#FF928E"/>
</linearGradient>
<linearGradient id="paint6_linear_848_4336" x1="134.321" y1="289.126" x2="155.415" y2="252.285" gradientUnits="userSpaceOnUse">
<stop stop-color="#FEBBBA"/>
<stop offset="1" stop-color="#FF928E"/>
</linearGradient>
</defs>
</svg>
