<svg width="515" height="456" viewBox="0 0 515 456" fill="none" xmlns="http://www.w3.org/2000/svg">
<path d="M254.234 455.148C394.644 455.148 508.468 447.946 508.468 439.062C508.468 430.178 394.644 422.977 254.234 422.977C113.824 422.977 0 430.178 0 439.062C0 447.946 113.824 455.148 254.234 455.148Z" fill="#F3E0C8"/>
<path d="M155.954 48.996C155.954 50.1979 155.465 51.293 154.667 52.0858C153.879 52.8832 152.784 53.3739 151.582 53.3739H57.9983C55.5945 53.3739 53.625 51.4044 53.625 48.996C53.625 47.7941 54.1145 46.699 54.9131 45.9062C55.7002 45.1076 56.7964 44.6181 57.9983 44.6181H62.421C64.1676 40.5585 68.2019 37.7215 72.8981 37.7215C76.0591 37.7215 78.9168 39.0084 80.9874 41.0836C83.744 36.4081 88.8286 33.2677 94.6508 33.2677C96.2515 33.2677 97.7912 33.5102 99.2459 33.9491C102.291 28.2234 108.31 24.3258 115.248 24.3258C123.579 24.3258 130.588 29.9504 132.703 37.6054C134.238 36.8379 135.97 36.3989 137.808 36.3989C143.004 36.3989 147.387 39.8679 148.766 44.6192H151.583C153.985 44.6181 155.954 46.5876 155.954 48.996Z" fill="white"/>
<path d="M515 107.149C515 108.35 514.511 109.446 513.712 110.238C512.924 111.036 511.829 111.526 510.627 111.526H417.043C414.639 111.526 412.67 109.557 412.67 107.149C412.67 105.947 413.159 104.852 413.958 104.059C414.745 103.261 415.841 102.771 417.043 102.771H421.466C423.212 98.7111 427.247 95.8729 431.943 95.8729C435.104 95.8729 437.962 97.1598 440.032 99.235C442.789 94.5595 447.874 91.4192 453.696 91.4192C455.296 91.4192 456.836 91.6616 458.291 92.1006C461.336 86.3748 467.355 82.4761 474.293 82.4761C482.624 82.4761 489.632 88.1007 491.748 95.7557C493.283 94.9881 495.015 94.5492 496.853 94.5492C502.049 94.5492 506.432 98.0182 507.81 102.77H510.628C513.031 102.771 515 104.74 515 107.149Z" fill="white"/>
<path d="M343.124 59.9878C343.124 61.1897 342.634 62.2859 341.836 63.0776C341.048 63.8762 339.953 64.3657 338.751 64.3657H245.167C242.763 64.3657 240.795 62.3962 240.795 59.9878C240.795 58.7859 241.284 57.6908 242.083 56.898C242.87 56.0994 243.966 55.6099 245.168 55.6099H249.592C251.339 51.5503 255.373 48.7121 260.069 48.7121C263.23 48.7121 266.088 49.9991 268.158 52.0743C270.915 47.3988 276 44.2584 281.822 44.2584C283.423 44.2584 284.962 44.5008 286.417 44.9398C289.462 39.214 295.481 35.3153 302.419 35.3153C310.751 35.3153 317.759 40.9411 319.874 48.5949C321.409 47.8274 323.141 47.3884 324.979 47.3884C330.175 47.3884 334.558 50.8574 335.937 55.6088H338.754C341.154 55.6099 343.124 57.5794 343.124 59.9878Z" fill="white"/>
<path d="M43.5335 163.101C47.3288 175.859 60.0706 175.461 59.7995 185.819C59.5283 196.174 66.0365 204.037 74.9808 202.14C83.9285 200.24 90.4057 198.343 94.4883 208.646C98.5674 218.948 111.582 224.098 116.732 215.964C118.015 213.941 119.401 211.747 120.756 209.594C121.126 209.005 121.496 208.42 121.859 207.844C121.944 207.71 122.029 207.577 122.112 207.444C127.565 198.786 125.764 187.312 117.724 180.983C114.469 178.422 110.576 176.982 106.16 178.282C92.3338 182.347 97.3161 168.441 89.0785 162.558C79.5908 155.779 71.452 163.452 64.9518 157.677C55.9088 149.646 39.7393 150.343 43.5335 163.101Z" fill="#FFFCF9"/>
<path d="M60.0292 168.616L120.756 209.595C121.126 209.006 121.496 208.422 121.859 207.845L61.1875 166.903C60.7141 166.583 60.0706 166.707 59.7523 167.181C59.4317 167.653 59.5558 168.297 60.0292 168.616Z" fill="#FFFCF9"/>
<path d="M343.946 101.646C358.244 95.689 370.685 87.4135 363.782 82.4553C356.874 77.4914 335.736 92.1373 325.953 109.39L321.221 114.463C328.571 102.015 330.722 84.0284 324.364 80.6134C318.046 77.2191 317.702 89.321 319.23 100.428C320.394 108.881 319.217 114.683 318.329 117.565L295.982 141.526C307.564 121.778 310.93 93.3863 300.87 87.9823C290.846 82.5967 290.299 101.8 292.724 119.422C294.556 132.739 292.73 141.913 291.325 146.519L286.869 151.296C287.576 152.198 288.288 153.097 289.006 153.991L315.592 125.484C318.774 124.679 323.371 124.017 329.36 124.419C340.546 125.17 352.594 123.983 348.769 117.917C345.449 112.654 331.76 114.455 320.419 120.309L329.613 110.45C332.978 107.886 337.775 104.216 343.946 101.646Z" fill="white"/>
<path d="M59.597 111.603C58.1021 123.941 69.1629 128.338 65.0792 137.108C60.9966 145.875 63.6452 155.03 72.0114 156.73C80.38 158.431 86.6331 159.214 86.2976 169.555C85.9598 179.895 95.189 189.145 102.625 184.094C104.477 182.838 106.478 181.474 108.44 180.135C108.975 179.769 109.51 179.406 110.035 179.046C110.158 178.963 110.28 178.881 110.4 178.798C118.29 173.411 121.014 162.916 116.482 154.506C114.647 151.102 111.848 148.42 107.584 147.892C94.2307 146.232 103.669 136.175 98.8028 128.074C93.1988 118.741 83.3756 122.285 79.956 114.922C75.1977 104.683 61.0908 99.266 59.597 111.603Z" fill="white"/>
<path d="M71.6725 122.461L108.44 180.136C108.975 179.77 109.51 179.407 110.035 179.047L73.3019 121.424C73.0158 120.975 72.4183 120.842 71.969 121.129C71.5186 121.414 71.3864 122.012 71.6725 122.461Z" fill="#FFFCF9"/>
<path d="M355.951 360.401C352.064 373.469 339.011 373.063 339.29 383.673C339.568 394.28 332.901 402.335 323.738 400.391C314.573 398.445 307.938 396.501 303.756 407.054C299.577 417.607 286.248 422.882 280.972 414.55C279.656 412.477 278.238 410.23 276.849 408.026C276.47 407.424 276.092 406.824 275.719 406.233C275.632 406.097 275.545 405.96 275.461 405.824C269.875 396.956 271.719 385.202 279.955 378.721C283.289 376.097 287.276 374.622 291.799 375.954C305.962 380.119 300.858 365.873 309.296 359.847C319.013 352.904 327.35 360.763 334.01 354.847C343.274 346.619 359.838 347.332 355.951 360.401Z" fill="#FFFCF9"/>
<path d="M339.054 366.05L276.85 408.025C276.471 407.423 276.093 406.823 275.721 406.232L337.867 364.295C338.352 363.968 339.011 364.095 339.338 364.58C339.666 365.064 339.539 365.723 339.054 366.05Z" fill="#FFFCF9"/>
<path d="M333.388 312.147C334.919 324.784 323.59 329.288 327.773 338.272C331.955 347.253 329.241 356.629 320.672 358.371C312.1 360.113 305.694 360.916 306.037 371.508C306.383 382.1 296.929 391.574 289.313 386.401C287.416 385.115 285.365 383.718 283.356 382.346C282.808 381.971 282.26 381.598 281.722 381.23C281.597 381.145 281.472 381.061 281.348 380.976C273.266 375.458 270.475 364.708 275.117 356.093C276.997 352.607 279.864 349.86 284.232 349.319C297.909 347.619 288.241 337.318 293.227 329.019C298.967 319.459 309.028 323.089 312.532 315.548C317.408 305.058 331.858 299.509 333.388 312.147Z" fill="white"/>
<path d="M321.02 323.268L283.359 382.347C282.81 381.973 282.262 381.599 281.725 381.231L319.352 322.207C319.645 321.746 320.257 321.61 320.717 321.903C321.177 322.196 321.314 322.808 321.02 323.268Z" fill="#FFFCF9"/>
<path d="M506.206 277.052C509.67 277.052 512.487 279.87 512.487 283.333C512.487 286.796 509.67 289.614 506.206 289.614C502.743 289.614 499.926 286.796 499.926 283.333C499.926 279.87 502.743 277.052 506.206 277.052ZM506.206 279.022C503.83 279.022 501.896 280.956 501.896 283.332C501.896 285.708 503.83 287.642 506.206 287.642C508.584 287.642 510.517 285.708 510.517 283.332C510.518 280.956 508.584 279.022 506.206 279.022Z" fill="#FF914C"/>
<path d="M499.818 245.129C503.281 245.129 506.099 247.947 506.099 251.41C506.099 254.873 503.281 257.691 499.818 257.691C496.355 257.691 493.537 254.873 493.537 251.41C493.536 247.948 496.355 245.129 499.818 245.129ZM499.818 247.1C497.44 247.1 495.508 249.034 495.508 251.41C495.508 253.786 497.442 255.72 499.818 255.72C502.195 255.72 504.128 253.786 504.128 251.41C504.128 249.034 502.194 247.1 499.818 247.1Z" fill="#FF914C"/>
<path d="M480.713 236.285C480.713 236.829 481.154 237.27 481.698 237.27H486.042C486.587 237.27 487.027 236.829 487.027 236.285C487.027 235.742 486.586 235.3 486.042 235.3H481.698C481.153 235.299 480.713 235.74 480.713 236.285Z" fill="#1A1A1A"/>
<path d="M473.109 236.285C473.109 236.829 473.551 237.27 474.094 237.27H478.439C478.983 237.27 479.423 236.829 479.423 236.285C479.423 235.742 478.982 235.3 478.439 235.3H474.094C473.551 235.299 473.109 235.74 473.109 236.285Z" fill="#1A1A1A"/>
<path d="M479.084 230.186V234.089C479.084 234.634 479.525 235.075 480.07 235.075C480.615 235.075 481.055 234.634 481.055 234.089V230.186C481.055 229.642 480.613 229.201 480.07 229.201C479.525 229.201 479.084 229.642 479.084 230.186Z" fill="#1A1A1A"/>
<path d="M479.084 238.481V242.384C479.084 242.928 479.525 243.369 480.07 243.369C480.615 243.369 481.055 242.928 481.055 242.384V238.481C481.055 237.936 480.613 237.496 480.07 237.496C479.525 237.495 479.084 237.936 479.084 238.481Z" fill="#1A1A1A"/>
<path d="M487.799 269.832C487.799 270.375 488.24 270.817 488.784 270.817H493.128C493.673 270.817 494.113 270.375 494.113 269.832C494.113 269.287 493.672 268.846 493.128 268.846H488.784C488.24 268.846 487.799 269.287 487.799 269.832Z" fill="#FF914C"/>
<path d="M480.195 269.832C480.195 270.375 480.637 270.817 481.181 270.817H485.526C486.07 270.817 486.512 270.375 486.512 269.832C486.512 269.287 486.07 268.846 485.526 268.846H481.181C480.637 268.846 480.195 269.287 480.195 269.832Z" fill="#FF914C"/>
<path d="M486.168 263.733V267.636C486.168 268.179 486.609 268.621 487.153 268.621C487.697 268.621 488.137 268.179 488.137 267.636V263.733C488.137 263.189 487.696 262.748 487.153 262.748C486.609 262.748 486.168 263.189 486.168 263.733Z" fill="#FF914C"/>
<path d="M486.168 272.026V275.93C486.168 276.473 486.609 276.915 487.153 276.915C487.697 276.915 488.137 276.473 488.137 275.93V272.026C488.137 271.483 487.696 271.042 487.153 271.042C486.609 271.042 486.168 271.483 486.168 272.026Z" fill="#FF914C"/>
<path d="M30.0673 125.076C30.0673 128.539 27.2498 131.357 23.7866 131.357C20.3233 131.357 17.5059 128.539 17.5059 125.076C17.5059 121.613 20.3233 118.795 23.7866 118.795C27.2498 118.795 30.0673 121.613 30.0673 125.076ZM19.4765 125.076C19.4765 127.452 21.4103 129.386 23.7866 129.386C26.164 129.386 28.0967 127.452 28.0967 125.076C28.0967 122.7 26.1628 120.766 23.7866 120.766C21.4103 120.766 19.4765 122.699 19.4765 125.076Z" fill="#FF914C"/>
<path d="M36.456 93.1541C36.456 96.6174 33.6385 99.4349 30.1753 99.4349C26.712 99.4349 23.8945 96.6174 23.8945 93.1541C23.8945 89.6909 26.712 86.8734 30.1753 86.8734C33.6385 86.8734 36.456 89.6909 36.456 93.1541ZM25.8652 93.1541C25.8652 95.5304 27.799 97.4642 30.1753 97.4642C32.5527 97.4642 34.4854 95.5304 34.4854 93.1541C34.4854 90.7779 32.5515 88.844 30.1753 88.844C27.799 88.8429 25.8652 90.7768 25.8652 93.1541Z" fill="#1A1A1A"/>
<path d="M49.2808 78.0281C49.2808 78.5716 48.8396 79.0128 48.2961 79.0128H43.9515C43.408 79.0128 42.9668 78.5716 42.9668 78.0281C42.9668 77.4834 43.408 77.0433 43.9515 77.0433H48.2961C48.8396 77.0433 49.2808 77.4846 49.2808 78.0281Z" fill="#FF914C"/>
<path d="M56.8844 78.0281C56.8844 78.5716 56.4431 79.0128 55.8996 79.0128H51.5551C51.0104 79.0128 50.5703 78.5716 50.5703 78.0281C50.5703 77.4834 51.0116 77.0433 51.5551 77.0433H55.8996C56.4431 77.0433 56.8844 77.4846 56.8844 78.0281Z" fill="#FF914C"/>
<path d="M50.9089 71.93V75.8334C50.9089 76.378 50.4677 76.8193 49.9242 76.8193C49.3795 76.8193 48.9395 76.378 48.9395 75.8334V71.93C48.9395 71.3865 49.3807 70.9453 49.9242 70.9453C50.4677 70.9442 50.9089 71.3854 50.9089 71.93Z" fill="#FF914C"/>
<path d="M50.9089 80.224V84.1273C50.9089 84.6708 50.4677 85.1121 49.9242 85.1121C49.3795 85.1121 48.9395 84.6708 48.9395 84.1273V80.224C48.9395 79.6793 49.3807 79.2393 49.9242 79.2393C50.4677 79.2393 50.9089 79.6793 50.9089 80.224Z" fill="#FF914C"/>
<path d="M42.1949 111.575C42.1949 112.118 41.7537 112.559 41.2102 112.559H36.8656C36.3209 112.559 35.8809 112.118 35.8809 111.575C35.8809 111.03 36.3221 110.59 36.8656 110.59H41.2102C41.7537 110.589 42.1949 111.03 42.1949 111.575Z" fill="#FF914C"/>
<path d="M49.7988 111.575C49.7988 112.118 49.3575 112.559 48.8129 112.559H44.4683C43.9237 112.559 43.4824 112.118 43.4824 111.575C43.4824 111.03 43.9237 110.59 44.4683 110.59H48.8129C49.3575 110.589 49.7988 111.03 49.7988 111.575Z" fill="#FF914C"/>
<path d="M43.825 105.475V109.379C43.825 109.922 43.3837 110.364 42.8402 110.364C42.2956 110.364 41.8555 109.922 41.8555 109.379V105.475C41.8555 104.932 42.2967 104.491 42.8402 104.491C43.3837 104.491 43.825 104.932 43.825 105.475Z" fill="#FF914C"/>
<path d="M43.825 113.771V117.674C43.825 118.217 43.3837 118.659 42.8402 118.659C42.2956 118.659 41.8555 118.217 41.8555 117.674V113.771C41.8555 113.227 42.2967 112.786 42.8402 112.786C43.3837 112.785 43.825 113.226 43.825 113.771Z" fill="#FF914C"/>
<path d="M414.502 127.073V142.927C414.502 145.023 416.203 146.722 418.297 146.722H447.083L455.774 149.841C456.667 150.161 457.52 149.283 457.178 148.401L453.89 139.912V127.073C453.89 124.977 452.19 123.278 450.093 123.278H418.297C416.201 123.278 414.502 124.977 414.502 127.073Z" fill="#FF914C"/>
<g opacity="0.5">
<path d="M439.508 135.451C439.508 136.968 440.737 138.197 442.254 138.197C443.771 138.197 445 136.968 445 135.451C445 133.934 443.771 132.705 442.254 132.705C440.737 132.706 439.508 133.934 439.508 135.451Z" fill="#FF914C"/>
<path d="M430.816 135.451C430.816 136.968 432.046 138.197 433.563 138.197C435.079 138.197 436.309 136.968 436.309 135.451C436.309 133.934 435.079 132.705 433.563 132.705C432.046 132.706 430.816 133.934 430.816 135.451Z" fill="#FF914C"/>
<path d="M422.125 135.451C422.125 136.968 423.355 138.197 424.871 138.197C426.388 138.197 427.617 136.968 427.617 135.451C427.617 133.934 426.388 132.705 424.871 132.705C423.355 132.705 422.125 133.934 422.125 135.451Z" fill="#FF914C"/>
</g>
<path d="M104.475 124.377V420.736C104.475 430.026 112.003 437.554 121.293 437.554H268.873C273.541 437.554 277.76 435.655 280.81 432.588C283.827 429.545 285.692 425.359 285.692 420.736V124.377C285.692 115.087 278.163 107.559 268.873 107.559H121.293C118.547 107.559 115.955 108.216 113.665 109.384C108.208 112.164 104.475 117.833 104.475 124.377Z" fill="#1A1A1A"/>
<path d="M110.74 124.377V420.736C110.74 430.026 118.269 437.554 127.559 437.554H275.139C279.806 437.554 284.026 435.655 287.074 432.588C290.092 429.545 291.958 425.359 291.958 420.736V124.377C291.958 115.087 284.429 107.559 275.139 107.559H127.559C124.813 107.559 122.22 108.216 119.93 109.384C114.474 112.164 110.74 117.833 110.74 124.377Z" fill="#1A1A1A"/>
<path d="M107.553 180.445H105.643C103.241 180.445 101.295 178.499 101.295 176.097V158.029C101.295 155.627 103.241 153.681 105.643 153.681H107.553V180.445Z" fill="#1A1A1A"/>
<path d="M107.553 215.449H105.643C103.241 215.449 101.295 213.503 101.295 211.101V193.032C101.295 190.631 103.241 188.684 105.643 188.684H107.553V215.449Z" fill="#1A1A1A"/>
<path d="M291.959 180.445H293.455C295.337 180.445 296.862 178.92 296.862 177.039V157.087C296.862 155.206 295.337 153.681 293.455 153.681H291.959V180.445Z" fill="#1A1A1A"/>
<path d="M283.565 123.358V421.75C283.565 422.779 283.356 423.758 282.976 424.648C281.845 427.306 279.219 429.158 276.157 429.158H126.541C122.454 429.158 119.133 425.849 119.133 421.749V123.358C119.133 122.945 119.164 122.537 119.233 122.14C119.65 119.62 121.347 117.527 123.63 116.539C124.107 116.337 124.603 116.182 125.122 116.085C125.579 115.993 126.056 115.947 126.541 115.947H276.157C280.247 115.947 283.565 119.268 283.565 123.358Z" fill="white"/>
<path d="M283.565 123.358V138.658H119.133V123.358C119.133 122.945 119.164 122.537 119.233 122.14C119.65 119.62 121.347 117.527 123.63 116.539C124.107 116.337 124.603 116.182 125.122 116.085C125.579 115.993 126.056 115.947 126.541 115.947H276.157C280.247 115.947 283.565 119.268 283.565 123.358Z" fill="white"/>
<path d="M257.606 115.939L249.976 127.547C247.848 130.786 244.233 132.737 240.357 132.737H166.622C162.746 132.737 159.131 130.787 157.003 127.547L149.373 115.939C149.373 114.736 150.357 113.75 151.563 113.75H255.417C256.62 113.75 257.606 114.737 257.606 115.939Z" fill="#1A1A1A"/>
<path opacity="0.3" d="M229.65 124.331H165.635C164.582 124.331 163.719 123.468 163.719 122.415V121.579C163.719 120.526 164.582 119.663 165.635 119.663H229.65C230.704 119.663 231.567 120.526 231.567 121.579V122.415C231.568 123.47 230.705 124.331 229.65 124.331Z" fill="white"/>
<path opacity="0.3" d="M243.95 121.842C243.95 123.389 242.697 124.644 241.149 124.644C239.601 124.644 238.348 123.39 238.348 121.842C238.348 120.296 239.601 119.041 241.149 119.041C242.697 119.041 243.95 120.295 243.95 121.842Z" fill="white"/>
<path d="M133.189 322.444C133.189 323.812 134.297 324.919 135.665 324.919H194.819C196.185 324.919 197.294 323.812 197.294 322.444C197.294 321.078 196.186 319.969 194.819 319.969H135.665C134.297 319.97 133.189 321.078 133.189 322.444Z" fill="#F3E0C8"/>
<path d="M208.221 322.444C208.221 323.812 209.328 324.919 210.696 324.919H269.851C271.218 324.919 272.326 323.812 272.326 322.444C272.326 321.078 271.219 319.969 269.851 319.969H210.696C209.328 319.97 208.221 321.078 208.221 322.444Z" fill="#F3E0C8"/>
<path d="M133.189 336.242C133.189 337.61 134.297 338.717 135.665 338.717H194.819C196.185 338.717 197.294 337.61 197.294 336.242C197.294 334.876 196.186 333.767 194.819 333.767H135.665C134.297 333.768 133.189 334.876 133.189 336.242Z" fill="#F3E0C8"/>
<path d="M208.221 336.242C208.221 337.61 209.328 338.717 210.696 338.717H269.851C271.218 338.717 272.326 337.61 272.326 336.242C272.326 334.876 271.219 333.767 269.851 333.767H210.696C209.328 333.768 208.221 334.876 208.221 336.242Z" fill="#F3E0C8"/>
<path d="M133.189 350.04C133.189 351.406 134.297 352.515 135.665 352.515H194.819C196.185 352.515 197.294 351.407 197.294 350.04C197.294 348.674 196.186 347.565 194.819 347.565H135.665C134.297 347.566 133.189 348.674 133.189 350.04Z" fill="#F3E0C8"/>
<path d="M208.221 350.04C208.221 351.406 209.328 352.515 210.696 352.515H269.851C271.218 352.515 272.326 351.407 272.326 350.04C272.326 348.674 271.219 347.565 269.851 347.565H210.696C209.328 347.566 208.221 348.674 208.221 350.04Z" fill="#F3E0C8"/>
<path d="M133.189 363.838C133.189 365.204 134.297 366.313 135.665 366.313H194.819C196.185 366.313 197.294 365.205 197.294 363.838C197.294 362.472 196.186 361.363 194.819 361.363H135.665C134.297 361.363 133.189 362.472 133.189 363.838Z" fill="#F3E0C8"/>
<path d="M208.221 363.838C208.221 365.204 209.328 366.313 210.696 366.313H269.851C271.218 366.313 272.326 365.205 272.326 363.838C272.326 362.472 271.219 361.363 269.851 361.363H210.696C209.328 361.363 208.221 362.472 208.221 363.838Z" fill="#F3E0C8"/>
<path d="M171.034 396.01H137.414C135.092 396.01 133.211 394.128 133.211 391.807V387.697C133.211 385.375 135.093 383.493 137.414 383.493H171.033C173.355 383.493 175.238 385.375 175.238 387.697V391.807C175.238 394.128 173.355 396.01 171.034 396.01Z" fill="#F3E0C8"/>
<path d="M219.952 396.01H186.333C184.011 396.01 182.129 394.128 182.129 391.807V387.697C182.129 385.375 184.011 383.493 186.333 383.493H219.952C222.275 383.493 224.156 385.375 224.156 387.697V391.807C224.157 394.128 222.275 396.01 219.952 396.01Z" fill="#F3E0C8"/>
<path d="M268.118 396.01H234.498C232.177 396.01 230.295 394.128 230.295 391.807V387.697C230.295 385.375 232.177 383.493 234.498 383.493H268.118C270.439 383.493 272.322 385.375 272.322 387.697V391.807C272.322 394.128 270.439 396.01 268.118 396.01Z" fill="#F3E0C8"/>
<path d="M283.564 183.143V295.821H142.035V183.143H148.543L148.484 183.08L148.555 183.143H283.564Z" fill="white"/>
<path d="M313.049 174.437H149.928V287.116H313.049V174.437Z" fill="#1A1A1A"/>
<path d="M319.578 174.437H156.457V287.116H319.578V174.437Z" fill="#FF914C"/>
<path d="M156.375 174.373L231.906 252.994C235.219 256.443 240.735 256.443 244.048 252.994L319.579 174.373L243.574 242.019C240.384 244.858 235.571 244.858 232.38 242.019L156.375 174.373Z" fill="#1A1A1A"/>
<path d="M222.302 232.75L161.182 287.116H156.457V284.243L218.789 228.802L222.302 232.75Z" fill="#1A1A1A"/>
<path d="M319.581 284.624V287.116H314.428L253.307 232.75L256.82 228.802L319.581 284.624Z" fill="#1A1A1A"/>
<path d="M156.453 174.436L232.638 242.192C235.703 244.919 240.325 244.919 243.391 242.192L319.575 174.436H156.453Z" fill="#FF914C"/>
<g opacity="0.5">
<path d="M236.042 184.985H179.581C177.702 184.985 176.18 183.463 176.18 181.584C176.18 179.705 177.702 178.183 179.581 178.183H236.042C237.921 178.183 239.443 179.705 239.443 181.584C239.443 183.463 237.921 184.985 236.042 184.985Z" fill="#FF914C"/>
</g>
<g opacity="0.5">
<path d="M253.321 184.985H247.606C245.728 184.985 244.205 183.463 244.205 181.584C244.205 179.705 245.728 178.183 247.606 178.183H253.321C255.199 178.183 256.722 179.705 256.722 181.584C256.722 183.463 255.199 184.985 253.321 184.985Z" fill="#FF914C"/>
</g>
<path d="M293.986 183.927H276.775C272.213 183.927 268.516 180.229 268.516 175.668V158.457C268.516 153.897 272.213 150.199 276.774 150.199H293.986C298.547 150.199 302.244 153.897 302.244 158.457V175.668C302.244 180.231 298.546 183.927 293.986 183.927Z" fill="#1A1A1A"/>
<path d="M296.968 183.927H279.757C275.196 183.927 271.498 180.229 271.498 175.668V158.457C271.498 153.897 275.196 150.199 279.756 150.199H296.967C301.529 150.199 305.226 153.897 305.226 158.457V175.668C305.226 180.231 301.529 183.927 296.968 183.927Z" fill="#FF914C"/>
<path d="M285.659 166.575L284.587 156.282H291.02L289.948 166.575H285.659ZM287.803 173.2C286.882 173.2 286.128 172.922 285.54 172.366C284.952 171.794 284.658 171.119 284.658 170.34C284.658 169.546 284.952 168.879 285.54 168.339C286.128 167.799 286.882 167.529 287.803 167.529C288.741 167.529 289.495 167.799 290.067 168.339C290.655 168.879 290.949 169.546 290.949 170.34C290.949 171.119 290.655 171.794 290.067 172.366C289.495 172.922 288.741 173.2 287.803 173.2Z" fill="white"/>
<path d="M351.405 418.454L350.762 430.049L360.169 430.255L361.319 418.073L351.405 418.454Z" fill="#F3E0C8"/>
<path d="M354.495 428.42C354.495 428.42 359.339 427.322 360.663 427.398C361.988 427.475 370.492 437.742 373.46 438.44C378.843 439.707 378.529 448.174 375.213 448.469C365.622 449.323 349.447 444.672 349.447 444.672C349.447 444.672 348.355 433.75 349.138 430.365C349.92 426.982 351.79 429.322 354.495 428.42Z" fill="#FF914C"/>
<path d="M362.047 437.995C361.875 438.026 361.692 437.989 361.539 437.879C361.244 437.664 361.18 437.25 361.394 436.955C361.466 436.856 363.179 434.527 365.217 433.771C367.929 432.762 369.769 434.437 369.846 434.508C370.114 434.757 370.127 435.176 369.878 435.444C369.63 435.71 369.21 435.725 368.943 435.476C368.893 435.431 367.609 434.296 365.677 435.011C364.017 435.627 362.479 437.712 362.464 437.734C362.36 437.876 362.208 437.965 362.047 437.995Z" fill="white"/>
<path d="M360.296 435.924C360.124 435.955 359.941 435.918 359.788 435.808C359.493 435.593 359.427 435.179 359.643 434.884C359.714 434.785 361.428 432.456 363.466 431.7C366.18 430.691 368.017 432.365 368.094 432.439C368.362 432.687 368.376 433.107 368.126 433.373C367.878 433.641 367.459 433.656 367.191 433.405C367.141 433.361 365.856 432.225 363.926 432.94C362.257 433.559 360.728 435.641 360.713 435.663C360.608 435.806 360.457 435.894 360.296 435.924Z" fill="white"/>
<path d="M364.534 439.794C364.363 439.825 364.179 439.789 364.026 439.678C363.731 439.463 363.665 439.049 363.881 438.753C363.953 438.654 365.666 436.325 367.704 435.569C370.418 434.559 372.256 436.235 372.333 436.307C372.6 436.556 372.614 436.974 372.365 437.242C372.117 437.51 371.697 437.525 371.429 437.274C371.379 437.229 370.094 436.094 368.164 436.809C366.495 437.428 364.966 439.51 364.951 439.531C364.847 439.676 364.696 439.765 364.534 439.794Z" fill="white"/>
<path d="M386 277.158C386 277.158 385.805 279.881 385.449 284.397C385.357 285.592 385.253 286.914 385.138 288.35C383.92 303.506 381.565 330.911 378.991 350.353C375.383 377.608 364.019 422.399 364.019 422.399L352.287 421.996L351.126 421.95L348.346 421.858C348.346 421.858 350.299 393.523 352.793 368.922C354.436 352.697 355.412 314.307 355.883 290.062C356.125 277.56 356.24 268.816 356.24 268.816L386 277.158Z" fill="#1A1A1A"/>
<path d="M386 277.158C386 277.158 385.804 279.881 385.448 284.397C385.356 285.592 385.253 286.914 385.138 288.35C379.726 289.361 364.845 290.062 355.883 290.062C356.124 277.56 356.239 268.816 356.239 268.816L386 277.158Z" fill="#1A1A1A"/>
<path d="M362.562 284.199C362.551 285.13 361.47 373.458 352.289 421.994L351.129 421.948C360.321 373.561 361.401 285.107 361.413 284.188L362.562 284.199Z" fill="#1A1A1A"/>
<path d="M424.982 420.681L424.597 431.14L415.034 430.635L414.818 419.527L424.982 420.681Z" fill="#F3E0C8"/>
<path d="M422.159 430.66C422.159 430.66 424.242 427.946 425.863 428.087C427.484 428.229 439.854 438.366 444.13 439.25C448.407 440.135 447.526 443.281 446.716 444.883C445.906 446.485 412.517 443.77 412.517 443.77C412.517 443.77 411.746 433.807 412.884 430.781C414.021 427.753 418.794 431.331 422.159 430.66Z" fill="#FF914C"/>
<path d="M428.973 437.707C428.821 437.75 428.652 437.734 428.505 437.646C428.218 437.477 428.124 437.11 428.292 436.824C428.348 436.728 429.692 434.473 431.468 433.611C433.83 432.461 435.639 433.814 435.715 433.872C435.978 434.073 436.029 434.451 435.826 434.714C435.625 434.977 435.248 435.028 434.984 434.825C434.935 434.789 433.675 433.876 431.992 434.692C430.545 435.394 429.339 437.414 429.327 437.435C429.246 437.573 429.117 437.666 428.973 437.707Z" fill="white"/>
<path d="M427.208 435.989C427.057 436.032 426.887 436.016 426.739 435.93C426.453 435.761 426.358 435.393 426.527 435.107C426.583 435.012 427.926 432.756 429.702 431.894C432.066 430.744 433.874 432.096 433.95 432.155C434.213 432.356 434.263 432.734 434.061 432.997C433.86 433.26 433.482 433.311 433.219 433.109C433.17 433.072 431.909 432.158 430.227 432.975C428.773 433.681 427.574 435.698 427.562 435.718C427.481 435.855 427.352 435.948 427.208 435.989Z" fill="white"/>
<path d="M431.38 439.116C431.227 439.16 431.058 439.142 430.911 439.056C430.625 438.887 430.53 438.519 430.699 438.233C430.755 438.138 432.098 435.882 433.875 435.021C436.24 433.87 438.047 435.223 438.123 435.281C438.386 435.483 438.435 435.861 438.234 436.124C438.033 436.387 437.655 436.437 437.392 436.235C437.343 436.198 436.081 435.286 434.4 436.102C432.946 436.807 431.747 438.824 431.735 438.845C431.653 438.981 431.524 439.076 431.38 439.116Z" fill="white"/>
<path d="M426.723 423.41L417.003 422.687L415.845 422.606L413.483 422.429C413.483 422.429 407.513 365.602 405.656 350.464C404.042 337.313 396.504 307.767 391.609 289.382C390.222 284.163 389.046 279.843 388.272 277.052C387.681 274.858 387.332 273.61 387.332 273.61L419.826 270.464C419.826 270.464 419.917 271.177 420.066 272.462C420.382 275.091 420.99 280.128 421.724 286.46C423.754 303.693 426.84 330.512 428.036 344.164C431.103 379.319 426.723 423.41 426.723 423.41Z" fill="#1A1A1A"/>
<path d="M421.726 286.461L391.61 289.382C390.223 284.163 389.048 279.843 388.273 277.052L420.068 272.463C420.384 275.092 420.992 280.129 421.726 286.461Z" fill="#1A1A1A"/>
<path d="M417.002 422.686L415.844 422.605C415.28 405.033 413.555 361.143 410.035 342.538C405.61 319.085 395.435 284.934 395.33 284.589L396.437 284.26C396.541 284.606 406.733 318.816 411.164 342.328C414.708 361.05 416.447 405.149 417.002 422.686Z" fill="#1A1A1A"/>
<path d="M421.438 190.356C421.944 194.786 422.48 199.035 422.951 202.596C423.711 208.339 424.298 212.285 424.298 212.285L428.954 227.285C430.547 232.417 436.351 234.899 441.165 232.511C441.246 232.473 441.331 232.43 441.415 232.388C449.725 228.128 444.542 211.727 444.542 211.727L442.942 211.654C442.237 209.862 440.334 205.295 437.915 199.559C437.622 198.854 437.317 198.129 437.009 197.395C436.494 196.176 435.962 194.915 435.419 193.627C434.648 191.802 433.852 189.919 433.048 188.023C427.123 174.018 420.813 159.195 420.813 159.195C418.558 160.353 419.834 176.256 421.438 190.356Z" fill="#F3E0C8"/>
<path d="M421.438 190.356C421.944 194.786 422.48 199.035 422.951 202.596C429.115 200.521 433.156 196.524 435.419 193.627C434.648 191.802 433.852 189.919 433.048 188.023L421.438 190.356Z" fill="#FD857D"/>
<path d="M434.425 217.358C434.46 217.361 434.491 217.361 434.527 217.36C434.851 217.352 435.129 217.11 435.171 216.78C436.152 208.895 437.207 203.06 437.918 199.559C437.625 198.856 437.317 198.131 437.01 197.396C436.338 200.484 435.038 207.058 433.847 216.614C433.802 216.977 434.059 217.309 434.425 217.358Z" fill="#FD857D"/>
<path d="M439.794 187.413C439.794 187.413 438.456 189.085 436.093 190.942C433.234 193.202 427.939 196.026 422.642 196.206C421.523 177.386 420.44 159.366 418.951 154.729C421.469 157.68 434.231 174.063 439.794 187.413Z" fill="#FF914C"/>
<path d="M435.645 217.702C435.645 217.702 436.2 198.812 440.094 194.673C443.987 190.534 447.611 188.886 451.388 188.901C455.165 188.916 458.728 189.27 458.546 190.829C458.546 190.829 467.17 189.24 471.112 191.363C475.055 193.484 459.787 195.943 455.241 196.208C450.693 196.472 448.371 199.093 448.274 201.812C448.177 204.531 446.129 222.581 446.129 222.581L435.645 217.702Z" fill="#F3E0C8"/>
<path d="M425.782 277.405C400.387 284.529 374.821 285.161 349.048 279.358C348.783 272.05 348.266 247.495 348.14 222.159C348.14 220.826 348.128 219.481 348.128 218.137V216.206C348.117 215.54 348.117 214.862 348.117 214.196C348.117 213.518 348.117 212.851 348.105 212.185C348.117 211.518 348.105 210.852 348.117 210.174C348.105 209.53 348.117 208.887 348.105 208.243C348.105 207.577 348.105 206.899 348.117 206.244C348.117 205.578 348.128 204.9 348.128 204.233C348.128 203.555 348.128 202.889 348.14 202.222C348.14 201.579 348.14 200.936 348.151 200.292C348.151 199.017 348.163 197.73 348.174 196.477V196.282C348.186 195.42 348.186 194.558 348.209 193.708C348.427 173.944 349.105 158.064 350.622 155.858C354.287 150.538 371.454 142.357 376.694 138.484L376.705 139.323C376.705 139.323 380.153 143.644 383.899 143.219C387.3 142.851 389.816 138.829 390.23 138.105C392.93 139.909 399.123 142.77 405.145 145.838C411.154 148.906 416.98 152.158 418.956 154.732C420.634 156.938 422.024 173.749 423.104 194.374V194.432C423.127 194.823 423.139 195.202 423.162 195.592V195.65C423.173 195.937 423.196 196.236 423.208 196.546C423.242 197.155 423.277 197.764 423.3 198.385C423.334 199.017 423.369 199.66 423.392 200.304C423.426 200.97 423.449 201.636 423.495 202.314C423.518 202.981 423.541 203.647 423.587 204.325C423.61 204.98 423.644 205.647 423.667 206.325C423.702 206.957 423.725 207.6 423.748 208.243C423.782 208.921 423.805 209.588 423.84 210.266C423.863 210.921 423.897 211.587 423.92 212.265C423.943 212.932 423.978 213.61 424.001 214.276C424.035 214.908 424.058 215.551 424.081 216.195C424.127 217.539 424.184 218.872 424.23 220.217C425.173 245.461 425.69 270.028 425.782 277.405Z" fill="#FF914C"/>
<path d="M372.897 157.801C372.64 157.75 372.44 157.531 372.423 157.258C372.402 156.931 372.651 156.649 372.977 156.628C387.978 155.663 393.127 144.341 393.177 144.227C393.309 143.928 393.66 143.791 393.959 143.923C394.259 144.054 394.395 144.403 394.264 144.703C394.21 144.827 392.893 147.787 389.614 150.898C386.596 153.76 381.272 157.283 373.054 157.812C372.999 157.815 372.946 157.812 372.897 157.801Z" fill="#FF914C"/>
<path d="M423.585 204.322L348.113 206.244C348.118 205.572 348.122 204.901 348.128 204.229C348.133 203.557 348.127 202.886 348.143 202.225L423.396 200.308C423.423 200.968 423.452 201.639 423.491 202.31C423.518 202.981 423.546 203.651 423.585 204.322Z" fill="#FF914C"/>
<path d="M423.92 212.263L348.118 214.193C348.112 213.522 348.117 212.85 348.111 212.189C348.116 211.517 348.11 210.846 348.115 210.174L423.752 208.247C423.781 208.918 423.809 209.589 423.836 210.26C423.864 210.921 423.891 211.592 423.92 212.263Z" fill="#FF914C"/>
<path d="M424.235 220.215L348.147 222.154C348.145 220.822 348.134 219.479 348.133 218.136L424.078 216.201C424.134 217.543 424.19 218.873 424.235 220.215Z" fill="#FF914C"/>
<path d="M415.119 183.876C417.393 186.792 420.776 193.444 422.296 196.519C422.504 196.94 422.675 197.295 422.806 197.564C422.978 197.917 423.074 198.121 423.082 198.136C423.131 198.241 423.206 198.325 423.298 198.382C423.269 197.766 423.238 197.154 423.207 196.544C423.194 196.242 423.176 195.939 423.161 195.642L423.16 195.592C422.848 194.966 422.481 194.23 422.069 193.422C420.345 190.046 417.889 185.498 416.055 183.146C415.854 182.887 415.481 182.843 415.222 183.044C414.962 183.245 414.92 183.619 415.119 183.876Z" fill="#FF914C"/>
<path d="M402.247 258.083C402.557 258.074 402.811 257.827 402.824 257.514C402.836 257.186 402.582 256.911 402.255 256.897C385.534 256.228 375.361 248.021 369.771 241.257C363.694 233.901 361.553 226.6 361.532 226.527C361.442 226.212 361.114 226.03 360.799 226.12C360.484 226.21 360.302 226.539 360.392 226.854C360.48 227.159 362.606 234.43 368.825 241.974C374.571 248.943 385.026 257.394 402.208 258.083C402.22 258.084 402.234 258.084 402.247 258.083Z" fill="#FF914C"/>
<path d="M393.016 247.711C393.278 247.704 393.512 247.524 393.577 247.257C393.654 246.939 393.458 246.618 393.14 246.54C378.534 242.989 375.426 230.945 375.396 230.824C375.318 230.505 374.996 230.31 374.679 230.388C374.361 230.465 374.166 230.786 374.244 231.104C374.276 231.236 375.058 234.379 377.75 238.012C380.226 241.355 384.858 245.747 392.86 247.694C392.912 247.707 392.964 247.712 393.016 247.711Z" fill="#FF914C"/>
<path d="M355.93 181.804C353.724 184.78 350.518 191.513 349.07 194.627C348.875 195.052 348.714 195.42 348.588 195.684C348.427 196.04 348.335 196.247 348.335 196.27C348.3 196.351 348.243 196.42 348.174 196.477V196.282C348.185 195.42 348.185 194.558 348.208 193.708C348.484 193.076 348.84 192.329 349.219 191.525C350.863 188.112 353.207 183.504 354.976 181.103C355.172 180.838 355.539 180.781 355.804 180.976C356.068 181.172 356.125 181.551 355.93 181.804Z" fill="#FF914C"/>
<path d="M429 192.993L480.453 191.682C481.921 191.644 483.08 190.425 483.043 188.957L483.004 187.437C482.966 185.97 481.747 184.811 480.279 184.848L428.825 186.159C427.358 186.197 426.198 187.416 426.235 188.884L426.274 190.403C426.312 191.872 427.533 193.031 429 192.993Z" fill="#1A1A1A"/>
<path d="M483.1 191.615L492.753 151.382C493.295 149.122 491.548 146.963 489.224 147.023L465.745 147.62C464.16 147.661 462.796 148.75 462.407 150.286L451.723 192.414L483.1 191.615Z" fill="#1A1A1A"/>
<path d="M462.403 150.286L451.808 192.067L449.125 192.135L459.72 150.354C460.113 148.818 461.474 147.727 463.06 147.686L465.743 147.617C464.158 147.66 462.796 148.75 462.403 150.286Z" fill="#1A1A1A"/>
<g opacity="0.5">
<path d="M468.984 171.546C468.441 174.198 470.137 176.293 472.773 176.225C475.409 176.158 477.986 173.955 478.529 171.303C479.071 168.652 477.375 166.557 474.739 166.624C472.103 166.691 469.527 168.895 468.984 171.546Z" fill="#1A1A1A"/>
</g>
<path d="M366.295 111.117C366.295 111.117 364.735 111.919 364.288 108.857C363.841 105.795 365.081 105.247 364.159 103.796C363.238 102.344 362.599 100.443 364.04 99.0787C365.48 97.7137 362.43 94.3619 364.096 92.6233C365.763 90.8848 368.52 90.4551 369.576 88.5097C370.633 86.5655 372.287 82.8529 377.518 82.7943C382.747 82.7346 384.529 86.9034 387.265 85.7267C390.001 84.5512 392.018 83.9089 395.282 86.1128C398.547 88.3167 395.231 91.4984 398.256 92.9704C401.28 94.4423 399.019 98.9995 402.491 101.566C405.109 103.501 402.634 111.372 397.407 110.326C392.18 109.278 366.295 111.117 366.295 111.117Z" fill="#1A1A1A"/>
<path d="M367.622 112.338C367.622 112.338 364.649 108.578 362.593 111.802C360.536 115.026 363.797 124.311 368.972 121.892L367.622 112.338Z" fill="#FD857D"/>
<path d="M367.755 119.027C367.562 119.032 367.381 118.909 367.32 118.715C366.436 115.846 363.411 114.75 363.381 114.739C363.152 114.658 363.03 114.406 363.111 114.175C363.192 113.944 363.445 113.823 363.674 113.904C363.816 113.953 367.148 115.149 368.167 118.454C368.24 118.687 368.109 118.936 367.874 119.007C367.835 119.021 367.795 119.026 367.755 119.027Z" fill="#A97C50"/>
<path d="M367.755 119.027C367.562 119.032 367.381 118.909 367.32 118.715C366.436 115.846 363.411 114.75 363.381 114.739C363.152 114.658 363.03 114.406 363.111 114.175C363.192 113.944 363.445 113.823 363.674 113.904C363.816 113.953 367.148 115.149 368.167 118.454C368.24 118.687 368.109 118.936 367.874 119.007C367.835 119.021 367.795 119.026 367.755 119.027Z" fill="black" fill-opacity="0.2"/>
<path d="M364.696 117.649C364.613 117.651 364.531 117.63 364.455 117.584C364.246 117.457 364.18 117.185 364.306 116.976C364.327 116.942 364.836 116.12 365.932 115.596C366.152 115.491 366.417 115.584 366.522 115.804C366.628 116.025 366.534 116.288 366.314 116.394C365.467 116.799 365.066 117.43 365.063 117.436C364.981 117.57 364.841 117.645 364.696 117.649Z" fill="#A97C50"/>
<path d="M364.696 117.649C364.613 117.651 364.531 117.63 364.455 117.584C364.246 117.457 364.18 117.185 364.306 116.976C364.327 116.942 364.836 116.12 365.932 115.596C366.152 115.491 366.417 115.584 366.522 115.804C366.628 116.025 366.534 116.288 366.314 116.394C365.467 116.799 365.066 117.43 365.063 117.436C364.981 117.57 364.841 117.645 364.696 117.649Z" fill="black" fill-opacity="0.2"/>
<path d="M397.249 111.583C397.249 111.583 400.027 107.676 402.245 110.791C404.464 113.906 401.68 123.344 396.389 121.193L397.249 111.583Z" fill="#FD857D"/>
<path d="M397.456 118.271C397.649 118.267 397.823 118.135 397.873 117.938C398.61 115.027 401.575 113.78 401.605 113.767C401.831 113.674 401.939 113.415 401.846 113.19C401.754 112.964 401.496 112.856 401.27 112.948C401.131 113.004 397.865 114.369 397.015 117.721C396.956 117.958 397.099 118.198 397.336 118.259C397.376 118.268 397.417 118.272 397.456 118.271Z" fill="#A97C50"/>
<path d="M397.456 118.271C397.649 118.267 397.823 118.135 397.873 117.938C398.61 115.027 401.575 113.78 401.605 113.767C401.831 113.674 401.939 113.415 401.846 113.19C401.754 112.964 401.496 112.856 401.27 112.948C401.131 113.004 397.865 114.369 397.015 117.721C396.956 117.958 397.099 118.198 397.336 118.259C397.376 118.268 397.417 118.272 397.456 118.271Z" fill="black" fill-opacity="0.2"/>
<path d="M400.44 116.739C400.523 116.736 400.605 116.712 400.677 116.662C400.879 116.524 400.931 116.249 400.794 116.047C400.771 116.013 400.221 115.218 399.101 114.751C398.876 114.656 398.616 114.763 398.523 114.989C398.428 115.214 398.535 115.473 398.76 115.567C399.627 115.928 400.06 116.537 400.063 116.543C400.151 116.674 400.296 116.742 400.44 116.739Z" fill="#A97C50"/>
<path d="M400.44 116.739C400.523 116.736 400.605 116.712 400.677 116.662C400.879 116.524 400.931 116.249 400.794 116.047C400.771 116.013 400.221 115.218 399.101 114.751C398.876 114.656 398.616 114.763 398.523 114.989C398.428 115.214 398.535 115.473 398.76 115.567C399.627 115.928 400.06 116.537 400.063 116.543C400.151 116.674 400.296 116.742 400.44 116.739Z" fill="black" fill-opacity="0.2"/>
<path d="M389.958 129.302L390.194 138.612C390.194 138.612 387.539 143.424 383.792 143.842C380.049 144.265 376.603 139.94 376.603 139.94L376.357 130.303L389.958 129.302Z" fill="#F3E0C8"/>
<path d="M389.957 129.302L390.063 133.433C387.614 136.293 383.158 137.106 376.512 136.297L376.359 130.304L389.957 129.302Z" fill="#FD857D"/>
<path d="M399.165 105.143C399.085 108.765 398.855 113.298 398.257 116.934C398.108 117.84 397.934 118.694 397.738 119.461C395.953 126.37 391.353 138.259 377.509 133.709C371.395 131.7 368.414 125.023 366.988 118.191C366.021 113.551 365.772 108.844 365.748 105.477C365.728 102.039 367.522 98.8511 370.469 97.0804C378.45 92.2831 387.038 93.7769 392.719 95.797C396.661 97.1965 399.258 100.968 399.165 105.143Z" fill="#F3E0C8"/>
<path d="M377.007 113.314C377.033 114.308 376.541 115.126 375.909 115.143C375.277 115.159 374.745 114.366 374.72 113.372C374.694 112.378 375.186 111.56 375.818 111.544C376.449 111.528 376.982 112.32 377.007 113.314Z" fill="#1A1A1A"/>
<path d="M390.75 112.964C390.775 113.958 390.283 114.776 389.651 114.792C389.019 114.808 388.487 114.015 388.462 113.021C388.437 112.027 388.928 111.209 389.56 111.193C390.191 111.177 390.724 111.97 390.75 112.964Z" fill="#1A1A1A"/>
<path d="M393.464 106.966C393.464 106.966 388.69 105.218 385.09 106.883L385.506 108.899C385.506 108.899 390.836 108.31 393.556 109.333C393.777 108.547 393.792 107.759 393.464 106.966Z" fill="#1A1A1A"/>
<path d="M370.988 107.547C370.988 107.547 375.703 105.544 379.409 107.035L379.095 109.084C379.095 109.084 373.701 108.765 371.018 109.933C370.755 109.155 370.7 108.362 370.988 107.547Z" fill="#1A1A1A"/>
<path d="M383.172 120.491C382.433 120.594 381.66 120.409 381.539 120.378C381.303 120.317 381.16 120.077 381.221 119.84C381.281 119.603 381.522 119.459 381.759 119.52C382.177 119.626 383.162 119.747 383.54 119.442C383.612 119.384 383.708 119.274 383.698 119.004C383.644 117.452 382.514 112.381 382.502 112.33C382.449 112.092 382.599 111.855 382.838 111.801C383.077 111.747 383.312 111.898 383.366 112.137C383.413 112.348 384.526 117.339 384.583 118.973C384.605 119.588 384.329 119.943 384.095 120.132C383.836 120.338 383.508 120.445 383.172 120.491Z" fill="#FD857D"/>
<path d="M376.832 123.111C377.24 124.921 378.527 128.236 382.574 128.133C386.631 128.029 387.691 124.943 388.028 122.826L376.832 123.111Z" fill="white"/>
<path d="M382.59 130.875C383.735 130.847 384.691 130.242 384.731 130.216C384.937 130.084 384.996 129.81 384.864 129.604C384.732 129.399 384.459 129.339 384.253 129.47C384.246 129.475 383.459 129.968 382.567 129.989C381.749 130.01 380.954 129.561 380.946 129.556C380.734 129.433 380.464 129.505 380.341 129.716C380.219 129.927 380.29 130.197 380.501 130.32C380.541 130.346 381.51 130.903 382.59 130.875Z" fill="#FD857D"/>
<path d="M399.165 105.143C399.085 108.765 398.855 113.298 398.257 116.934L396.276 116.844C396.276 116.844 396.677 113.777 396.847 111.781C397.017 109.786 397.299 106.056 395.589 105.635C393.884 105.218 394.77 100.949 392.365 99.1694C389.961 97.3849 384.682 95.8958 381.262 98.1249C377.84 100.349 373.856 99.2694 372.265 99.6819C370.668 100.09 368.548 102.357 369.19 104.407C369.834 106.453 368.098 107.754 367.723 109.9C367.349 112.047 368.867 117.762 368.867 117.762L366.988 118.191C366.021 113.551 365.772 108.844 365.748 105.477C365.728 102.039 367.522 98.8511 370.469 97.0804C378.45 92.2831 387.038 93.7769 392.719 95.797C396.661 97.1965 399.258 100.968 399.165 105.143Z" fill="#1A1A1A"/>
<path d="M351.708 267.504L346.985 273.95C346.985 273.95 344.25 272.238 340.539 269.262C340.528 269.25 340.528 269.25 340.516 269.239C334.863 264.723 327.998 256.337 323.705 247.711C317.003 234.242 320.04 224.58 320.04 224.58C320.706 218.099 324.337 209.12 327.796 199.342C329.06 195.791 330.209 192.7 331.013 190.528L341.573 192.953L346.089 195.734L344.354 200.318C341.366 210.215 337.988 219.948 333.467 229.201C334.489 238.267 338.321 249.211 342.745 255.921C347.318 262.884 351.708 267.504 351.708 267.504Z" fill="#F3E0C8"/>
<path d="M351.709 267.504L346.987 273.95C346.987 273.95 344.252 272.238 340.54 269.262C340.529 269.25 340.529 269.25 340.517 269.239C339.702 264.367 340.196 257.484 342.747 255.921C347.32 262.884 351.709 267.504 351.709 267.504Z" fill="#FD857D"/>
<path d="M349.185 260.066C350.135 260.128 355.203 260.38 354.655 258.646C354.05 256.734 349.077 254.494 349.077 254.494C349.077 254.494 349.048 254.396 349.097 254.268L349.043 253.859L348.823 249.749C347.863 249.755 346.98 249.943 346.502 250.091C344.322 250.765 344.621 255.751 344.621 255.751C344.621 255.751 341.873 256.734 341.973 258.746C342.074 260.759 344.288 261.061 344.288 261.061C344.288 261.061 341.264 262.571 341.97 264.282C342.677 265.993 344.969 266.496 344.969 266.496C344.969 266.496 342.375 268.207 343.281 269.415C344.187 270.622 346.301 271.227 346.301 271.227C346.301 271.227 344.491 273.676 346.331 275.012C348.169 276.347 350.874 276.057 352.614 275.453C354.354 274.848 354.051 272.634 350.63 271.024C350.63 271.024 353.649 271.327 355.158 268.81C356.417 266.712 353.206 265.805 350.466 265.445C352.619 265.589 356.332 265.529 356.97 263.475C357.805 260.784 350.349 260.149 349.185 260.066Z" fill="#F3E0C8"/>
<path d="M346.09 195.734L344.355 200.318C340.85 200.537 334.576 200.64 327.797 199.342C329.061 195.791 330.21 192.7 331.014 190.528L341.574 192.953L346.09 195.734Z" fill="#FD857D"/>
<path d="M350.615 155.863C350.615 155.863 334.687 171.352 325.303 193.842C332.658 196.221 339.621 197.904 346.086 198.709C346.85 196.621 350.871 187.978 354.431 181.876L350.615 155.863Z" fill="#FF914C"/>
<path d="M221.803 34.1215L221.821 34.0721C222.087 33.4826 222.331 32.8851 222.549 32.2888C225.758 23.5307 226.074 5.55371 206.117 1.30106C206.117 1.30106 189.668 -2.54138 182.352 12.2607C182.352 12.2607 179.057 19.1183 176.717 24.0994C176.717 24.0994 174.753 34.5662 164.877 35.49C155.001 36.4139 149.493 40.2057 150.443 47.5206C151.392 54.8355 149.873 53.6715 143.036 59.8569C136.199 66.0422 131.429 77.6097 137.327 85.2234C143.225 92.837 165.293 74.8233 179.424 82.8724C193.555 90.9215 217.284 88.5683 220.043 77.1145C222.802 65.6619 211.749 58.1138 212.337 52.2961C212.927 46.4796 220.012 39.6875 221.803 34.1215Z" fill="#1A1A1A"/>
<path d="M227.17 107.547L213.071 107.559L206.257 94.3101L205.487 92.7933L202.58 87.1515C202.58 87.1515 203.164 63.1363 209.323 59.8615L227.17 107.547Z" fill="#FF914C"/>
<path d="M206.256 94.3101L205.486 92.7933C206.842 90.0471 209.186 83.7273 207.325 75.592C207.244 75.2128 207.474 74.8451 207.842 74.7647C208.21 74.6843 208.589 74.9141 208.669 75.2818C210.875 84.9338 207.566 92.0235 206.256 94.3101Z" fill="#FF914C"/>
<path d="M230.631 105.88C230.631 105.88 231.845 111.116 233.915 112.558C235.984 114 235.461 106.678 235.461 106.678C235.461 106.678 236.158 115.515 238.3 115.751C240.441 115.988 240.011 107.385 240.011 107.385C240.011 107.385 241.394 113.3 243.017 113.645C244.64 113.991 244.583 107.69 244.583 107.69C244.583 107.69 246.155 112.266 247.355 112.664C248.557 113.061 249.139 107.745 248.464 105.036C247.789 102.328 244.417 103.972 244.417 103.972C244.417 103.972 241.231 103.052 240.125 104.149C240.125 104.149 237.269 102.908 235.669 103.712C235.669 103.714 231.004 102.367 230.631 105.88Z" fill="#F3E0C8"/>
<path d="M206.897 71.352C207.437 75.9827 208.908 80.6594 206.943 88.0248C206.322 90.3574 205.357 92.2189 203.542 95.4132V95.4247C203.53 95.4247 203.53 95.4247 203.53 95.4247C203.45 95.6086 203.346 95.7809 203.231 95.9648C203.197 96.298 203.151 96.6197 203.117 96.9415C201.933 105.146 202.243 100.791 202.381 107.559H159.912L160.222 90.7481L160.291 87.163L160.9 54.1622L174.31 52.9787H174.321L176.631 52.7718L176.769 52.7488L180.377 52.4386C180.698 52.4041 181.009 52.3811 181.33 52.3582C186.191 52.0594 191.063 52.8178 195.625 54.5758L195.774 54.6333L197.785 55.4032V55.4147L197.911 55.4606L199.876 56.219L209.321 59.8615C208.839 61.9872 207.334 69.2148 206.897 71.352Z" fill="#FF914C"/>
<path d="M165.575 78.5335L160.221 90.748L160.29 87.1629L164.311 77.982C164.461 77.6373 164.874 77.4764 165.219 77.6258C165.564 77.7752 165.725 78.1888 165.575 78.5335Z" fill="#FF914C"/>
<path d="M174.314 52.9718C178.695 61.7988 189.419 71.6623 194.914 68.6184C198.294 66.7501 199.675 60.6118 199.874 56.2132L197.905 55.4572L197.785 55.4123V55.4089L195.775 54.6344L195.621 54.5747C191.065 52.8189 186.192 52.0628 181.329 52.3627C181.164 52.3857 180.996 52.4076 180.831 52.4305C180.678 52.4489 180.527 52.4685 180.378 52.4868L176.765 52.7569L176.626 52.7684L174.314 52.9718Z" fill="#F3E0C8"/>
<path d="M203.236 95.9705C203.196 96.2968 203.151 96.6208 203.117 96.9437C200.79 97.4401 193.487 98.4662 181.071 95.4936C179.461 95.1075 177.764 94.6548 175.982 94.1228C175.615 94.016 175.41 93.631 175.516 93.2645C175.627 92.9037 176.013 92.6934 176.374 92.8037C194.284 98.1238 203.427 95.4534 203.519 95.4281C203.529 95.4258 203.535 95.4224 203.544 95.4201C203.443 95.5982 203.343 95.782 203.236 95.9705Z" fill="#FF914C"/>
<path d="M214.973 32.8253C214.973 32.8253 218.924 30.3503 219.93 33.9227C220.935 37.4963 215.067 44.8927 210.848 41.0675L214.973 32.8253Z" fill="#FD857D"/>
<path d="M213.273 41.2743C213.095 41.7741 213.355 42.3234 213.854 42.5026C214.354 42.6807 214.903 42.421 215.083 41.9212C215.261 41.4214 215.001 40.871 214.501 40.6929C214.001 40.5147 213.451 40.7744 213.273 41.2743Z" fill="white"/>
<path d="M212.859 38.8533C213.041 38.9188 213.251 38.8636 213.366 38.7062C215.062 36.3817 218.272 36.3403 218.304 36.3403C218.548 36.3391 218.738 36.1484 218.729 35.914C218.721 35.6796 218.517 35.49 218.273 35.49C218.124 35.49 214.589 35.5268 212.636 38.2041C212.498 38.3936 212.55 38.6591 212.751 38.7981C212.784 38.8211 212.821 38.8395 212.859 38.8533Z" fill="#A97C50"/>
<path d="M212.859 38.8533C213.041 38.9188 213.251 38.8636 213.366 38.7062C215.062 36.3817 218.272 36.3403 218.304 36.3403C218.548 36.3391 218.738 36.1484 218.729 35.914C218.721 35.6796 218.517 35.49 218.273 35.49C218.124 35.49 214.589 35.5268 212.636 38.2041C212.498 38.3936 212.55 38.6591 212.751 38.7981C212.784 38.8211 212.821 38.8395 212.859 38.8533Z" fill="black" fill-opacity="0.2"/>
<path d="M216.186 38.5661C216.264 38.5936 216.349 38.6017 216.436 38.5833C216.672 38.5339 216.816 38.3075 216.757 38.0777C216.748 38.0398 216.506 37.1332 215.616 36.3139C215.438 36.1485 215.158 36.1496 214.991 36.3174C214.825 36.484 214.836 36.7529 215.014 36.9183C215.701 37.5526 215.897 38.2512 215.899 38.2581C215.937 38.404 216.048 38.5167 216.186 38.5661Z" fill="#A97C50"/>
<path d="M216.186 38.5661C216.264 38.5936 216.349 38.6017 216.436 38.5833C216.672 38.5339 216.816 38.3075 216.757 38.0777C216.748 38.0398 216.506 37.1332 215.616 36.3139C215.438 36.1485 215.158 36.1496 214.991 36.3174C214.825 36.484 214.836 36.7529 215.014 36.9183C215.701 37.5526 215.897 38.2512 215.899 38.2581C215.937 38.404 216.048 38.5167 216.186 38.5661Z" fill="black" fill-opacity="0.2"/>
<path d="M187.708 42.944L184.02 53.2717C184.02 53.2717 187.497 58.6895 191.126 60.3498C194.751 62.0125 197.621 58.0598 197.621 58.0598L201.054 48.4479L187.708 42.944Z" fill="#F3E0C8"/>
<path d="M187.347 43.9552L185.875 48.0746C187.392 51.7607 191.5 54.3415 198.451 55.7261L200.692 49.458L187.347 43.9552Z" fill="#FD857D"/>
<path d="M215.205 37.3354C214.729 38.2902 214.226 39.2543 213.686 40.2011C210.101 46.4922 203.262 52.2294 197.464 51.5308C184.942 50.0221 183.383 39.2072 183.928 31.8349C183.99 31.0156 184.678 30.2997 184.831 29.3586C185.194 27.1306 185.197 24.4522 185.843 22.0415C186.291 20.3707 186.769 18.7356 187.217 17.2637C188.487 13.1156 192.191 10.2097 196.409 10.0637C202.489 9.8477 211.173 11.0588 217.227 18.2864C219.463 20.9556 220.141 24.6613 219.004 28.0453C218.134 30.6295 216.87 33.9652 215.205 37.3354Z" fill="#F3E0C8"/>
<path d="M199.213 37.4825C198.997 37.4055 198.863 37.1815 198.904 36.9493C198.951 36.6897 199.198 36.5161 199.458 36.5633L201.095 36.8551L200.992 30.4262C200.987 30.163 201.197 29.9447 201.462 29.9401C201.725 29.9367 201.943 30.1458 201.947 30.4101L202.068 37.9984L199.289 37.502C199.264 37.4986 199.237 37.4917 199.213 37.4825Z" fill="#FD857D"/>
<path d="M214.785 24.4292C218.575 28.112 215.216 32.9759 215.781 36.2208C215.817 36.4311 215.91 36.5001 216.05 36.4483C217.762 33.0184 219.053 29.6195 219.937 26.9847C221.095 23.533 220.341 19.7354 217.963 16.9788C211.526 9.51681 202.393 8.18161 196.008 8.33558C191.58 8.43785 187.723 11.3702 186.434 15.6011C185.979 17.1017 185.496 18.7701 185.043 20.4742C185.635 21.1901 187.397 22.0495 187.042 23.2848C186.105 26.5515 185.48 28.7934 186.215 28.8416C187.455 28.9197 189.536 25.3002 189.143 22.3391C189.143 22.3391 190.779 21.0246 195.577 20.9051C201.733 20.7523 208.044 19.5262 208.044 19.5262C208.044 19.5262 210.539 19.0229 211.81 17.9555C211.812 17.9566 211.899 21.6244 214.785 24.4292Z" fill="#1A1A1A"/>
<path d="M207.453 32.198C207.099 33.1897 207.323 34.1756 207.953 34.4008C208.583 34.626 209.381 34.0043 209.735 33.0139C210.089 32.0234 209.865 31.0375 209.235 30.8123C208.604 30.5859 207.807 31.2076 207.453 32.198Z" fill="#1A1A1A"/>
<path d="M194.453 27.5466C194.099 28.5383 194.323 29.5241 194.953 29.7494C195.583 29.9746 196.381 29.3529 196.735 28.3625C197.089 27.3708 196.865 26.3849 196.235 26.1609C195.606 25.9368 194.807 26.555 194.453 27.5466Z" fill="#1A1A1A"/>
<path d="M213.056 28.2258C212.203 27.7191 210.454 26.7619 208.453 26.1253C207.927 25.9576 207.371 26.2012 207.294 26.6401L207.292 26.6516C207.231 27.0021 207.505 27.3514 207.932 27.4686C209.315 27.8478 212.829 29.1278 214.294 30.201C214.424 29.9804 214.356 29.6713 214.203 29.368C213.973 28.9083 213.555 28.5211 213.056 28.2258Z" fill="#1A1A1A"/>
<path d="M194.639 21.8897C195.622 22.0253 197.587 22.3655 199.549 23.1146C200.065 23.3111 200.348 23.8477 200.135 24.2396L200.129 24.2488C199.958 24.5613 199.526 24.6624 199.119 24.4889C197.801 23.9247 194.255 22.7366 192.439 22.6642C192.475 22.4103 192.721 22.2115 193.03 22.069C193.497 21.853 194.064 21.8105 194.639 21.8897Z" fill="#1A1A1A"/>
<path d="M203.244 41.9432C202.348 43.4013 200.202 45.9074 196.469 44.5733C192.727 43.237 192.624 40.2092 192.916 38.2535L203.244 41.9432Z" fill="white"/>
<path d="M195.556 47.3035C196.634 47.6884 197.792 47.4483 197.841 47.4379C198.094 47.3839 198.255 47.1346 198.201 46.8818C198.147 46.629 197.899 46.4681 197.646 46.521C197.637 46.5233 196.692 46.7152 195.871 46.421C194.981 46.1039 194.353 45.3478 194.347 45.3398C194.183 45.1398 193.889 45.11 193.688 45.2743C193.488 45.4374 193.458 45.7316 193.621 45.9315C193.653 45.9717 194.415 46.8956 195.556 47.3035Z" fill="#FD857D"/>
<path d="M187.085 22.832C187.085 22.832 185.292 17.8635 182.437 19.964C179.582 22.0644 179.301 31.1822 184.583 30.8202L187.085 22.832Z" fill="#F3E0C8"/>
<path d="M181.644 29.9768C181.466 30.4766 181.726 31.0258 182.225 31.2051C182.725 31.3832 183.276 31.1235 183.454 30.6237C183.632 30.1238 183.372 29.5734 182.872 29.3953C182.371 29.2161 181.822 29.4769 181.644 29.9768Z" fill="white"/>
<path d="M184.487 27.9372C184.318 27.8774 184.203 27.7097 184.216 27.5224C184.409 24.7451 182.16 22.7883 182.137 22.7687C181.966 22.6217 181.945 22.3631 182.091 22.1908C182.238 22.0184 182.497 21.9977 182.669 22.1437C182.775 22.2333 185.257 24.3809 185.035 27.5787C185.019 27.805 184.824 27.9751 184.597 27.959C184.558 27.9567 184.522 27.9487 184.487 27.9372Z" fill="#FD857D"/>
<path d="M182.302 25.7231C182.23 25.6978 182.165 25.6519 182.114 25.5875C181.976 25.4083 182.01 25.1509 182.189 25.0118C182.219 24.9889 182.934 24.4488 184.056 24.3615C184.281 24.3431 184.479 24.5131 184.496 24.7384C184.514 24.9636 184.345 25.1612 184.119 25.1796C183.252 25.2474 182.695 25.6587 182.689 25.6633C182.575 25.7495 182.429 25.7679 182.302 25.7231Z" fill="#FD857D"/>
<path d="M200.991 28.3234C201.088 28.0557 201.121 27.7776 201.098 27.5087C201.041 26.771 200.571 26.0988 199.834 25.8173L193.332 23.3308C192.82 23.1354 192.28 23.1664 191.817 23.3733C191.563 23.487 191.336 23.6525 191.149 23.8651C190.991 24.0397 190.864 24.2431 190.775 24.4729L190.457 25.3037C189.918 26.7124 189.956 28.2683 190.56 29.5782C191.165 30.8789 192.076 31.7844 193.273 32.2716L193.444 32.3371C194.836 32.8691 196.35 32.83 197.717 32.2244C199.103 31.6109 200.164 30.4928 200.705 29.076L200.974 28.3728C200.981 28.3579 200.988 28.3395 200.991 28.3234ZM199.94 28.783C199.477 29.9953 198.569 30.949 197.387 31.473C196.218 31.99 194.925 32.0234 193.738 31.5695L193.582 31.5097C192.586 31.103 191.821 30.3377 191.308 29.2335C190.795 28.1258 190.765 26.7986 191.224 25.5967L191.543 24.7659C191.771 24.1673 192.44 23.8697 193.038 24.0983L199.54 26.5849C200.135 26.8124 200.437 27.4823 200.208 28.0798L199.94 28.783Z" fill="white"/>
<path d="M214.881 33.1219C214.911 32.8427 214.875 32.5623 214.788 32.3004C214.603 31.7638 214.191 31.3076 213.621 31.0893L207.117 28.6016C206.363 28.3132 205.54 28.5177 205.004 29.06C204.823 29.2404 204.675 29.4588 204.577 29.7081C204.569 29.7196 204.566 29.7299 204.561 29.7426L204.243 30.5733C203.704 31.9821 203.744 33.539 204.349 34.849C204.951 36.1485 205.864 37.0552 207.059 37.5412L207.233 37.6078C208.624 38.1399 210.139 38.1008 211.505 37.4952C212.888 36.8816 213.952 35.7636 214.494 34.3468L214.762 33.6436C214.828 33.4747 214.868 33.2989 214.881 33.1219ZM213.726 34.0561C213.263 35.2684 212.355 36.2221 211.171 36.7449C210.005 37.2631 208.712 37.2965 207.526 36.8426L207.367 36.7817C206.371 36.3738 205.606 35.6096 205.093 34.5054C204.582 33.3977 204.55 32.0706 205.009 30.8686L205.328 30.0379C205.556 29.4392 206.227 29.1416 206.822 29.3703L213.327 31.858C213.922 32.0855 214.224 32.7554 213.995 33.3529L213.726 34.0561Z" fill="white"/>
<path d="M191.817 23.3733C191.287 22.7953 189.84 21.4532 187.381 20.7224V21.5888C189.41 22.2507 190.653 23.3537 191.149 23.8651C191.313 24.0328 191.396 24.1385 191.4 24.1431L192.051 23.6445C192.036 23.6238 191.959 23.5238 191.817 23.3733Z" fill="white"/>
<path d="M200.707 28.3027L200.732 27.4823C200.784 27.4834 202.002 27.5248 203.184 27.9775C204.444 28.459 205.107 29.1565 205.134 29.1852L204.536 29.7471C204.531 29.7425 203.963 29.1542 202.891 28.744C201.842 28.3429 200.719 28.3027 200.707 28.3027Z" fill="white"/>
<path d="M217.436 32.5037C215.908 32.1957 214.523 32.3152 214.434 32.3233L214.508 33.1403C214.531 33.1391 215.953 33.0185 217.436 33.3459V32.5037Z" fill="white"/>
<path d="M194.576 107.604C194.576 107.604 194.84 112.84 193.177 114.283C191.515 115.725 189.972 108.403 189.972 108.403C189.972 108.403 191.77 117.239 189.695 117.476C187.619 117.713 185.621 109.11 185.621 109.11C185.621 109.11 185.909 115.025 184.383 115.37C182.857 115.716 181.134 109.414 181.134 109.414C181.134 109.414 180.855 113.991 179.766 114.389C178.676 114.786 176.593 109.47 176.503 106.762C176.414 104.054 180.249 105.698 180.249 105.698C180.249 105.698 183.176 104.779 184.591 105.875C184.591 105.875 187.097 104.634 188.924 105.438C188.926 105.438 193.211 104.091 194.576 107.604Z" fill="#F3E0C8"/>
<path d="M171.183 107.547L141.021 107.559C140.998 107.547 140.929 107.294 140.929 107.283C140.4 99.274 145.468 85.7841 149.007 73.9948C151.351 66.1927 154.43 56.8049 160.899 54.1621C162.037 55.5065 164.14 61.045 164.289 63.8716C164.634 70.697 163.772 77.9131 162.508 81.7049C160.681 87.1515 158.394 93.7815 156.728 99.228C156.728 99.228 156.728 99.2395 156.717 99.274C156.682 99.4234 156.567 99.9634 156.567 99.9749C156.613 99.9864 156.912 100.147 157.441 100.446C159.406 101.538 164.542 104.422 171.183 107.547Z" fill="#FF914C"/>
<path d="M157.442 100.446C154.282 101.917 149.812 105.019 149.766 105.054C149.64 105.146 149.502 105.18 149.376 105.18C149.157 105.18 148.939 105.077 148.801 104.881C148.583 104.571 148.663 104.146 148.973 103.928C149.169 103.79 153.478 100.802 156.718 99.274C156.683 99.4234 156.569 99.9635 156.569 99.975C156.615 99.9865 156.913 100.147 157.442 100.446Z" fill="#FF914C"/>
<path d="M180.379 52.434C180.379 52.434 182.676 62.8892 190.903 63.4637C199.13 64.0383 199.876 55.7271 199.876 55.7271" stroke="white" stroke-width="1.2" stroke-miterlimit="10" stroke-linecap="round"/>
<path d="M470.747 394.983C470.747 394.983 469.81 395.9 467.888 396.041C467.308 396.089 466.642 396.062 465.873 395.907C465.057 395.759 464.133 395.468 463.108 394.983C463.108 394.983 463.553 376.092 455.914 363.078C448.275 350.065 438.161 332.091 446.252 322.873C454.342 313.657 467.376 326.467 471.644 348.042C475.919 369.619 470.747 394.983 470.747 394.983Z" fill="#FF914C"/>
<path d="M467.889 396.041C467.308 396.088 466.642 396.062 465.873 395.907C468.328 362.371 453.103 336.466 452.949 336.203C452.659 335.724 452.814 335.105 453.292 334.814C453.771 334.53 454.392 334.685 454.681 335.164C454.842 335.427 470.39 361.844 467.889 396.041Z" fill="#1A1A1A"/>
<path d="M496.947 364.494C479.074 393.392 480.308 400.073 480.308 400.073L477.961 399.655L475.965 399.305L473.119 398.799C471.535 385.981 481.379 331.807 498.929 331.807C516.797 331.807 503.036 354.657 496.947 364.494Z" fill="#FF914C"/>
<path d="M496.273 347.867C496.104 348.151 481.137 374.85 477.961 399.655L475.965 399.305C479.228 374.101 494.345 347.159 494.506 346.87C494.782 346.385 495.403 346.216 495.888 346.492C496.374 346.769 496.543 347.382 496.273 347.867Z" fill="#1A1A1A"/>
<path d="M462.945 397.545L460.889 398.098L458.92 398.631L457.74 398.948C457.814 398.692 456.918 396.48 444.343 379.679C439.152 372.734 425.302 354.058 438 350.923C449.643 348.05 463.282 387.869 462.945 397.545Z" fill="#FF914C"/>
<path d="M460.889 398.098L458.92 398.631C455.293 382.442 440.575 362.573 440.413 362.357C440.082 361.912 440.176 361.278 440.622 360.941C441.068 360.61 441.701 360.699 442.037 361.15C442.685 362.026 457.154 381.539 460.889 398.098Z" fill="#1A1A1A"/>
<path d="M487.848 440.295C487.848 443.53 447.871 443.53 447.871 440.295V392.761C447.871 392.269 448.27 391.87 448.762 391.87H486.956C487.448 391.87 487.847 392.269 487.847 392.761L487.848 440.295Z" fill="#1A1A1A"/>
<path d="M73.0236 441.482H44.2903C40.3824 441.482 36.9191 438.492 35.7115 434.076L23.5258 389.515C23.0271 387.691 24.0968 385.796 25.7055 385.648C47.8915 383.605 69.8614 383.603 91.6118 385.642C93.2182 385.793 94.2857 387.687 93.7881 389.508L81.6013 434.075C80.3948 438.492 76.9315 441.482 73.0236 441.482Z" fill="#1A1A1A"/>
<path d="M91.2383 388.884C91.2383 390.07 76.7395 391.03 58.8545 391.03C40.9695 391.03 26.4707 390.07 26.4707 388.884C26.4707 387.698 40.9695 386.738 58.8545 386.738C76.7395 386.738 91.2383 387.699 91.2383 388.884Z" fill="#1A1A1A"/>
<path d="M95.5296 328.66C83.8759 325.59 66.0701 349.778 60.6627 373.361V339.001C63.3813 334.181 68.5636 326.928 77.9732 319.265C92.6064 307.347 106.077 292.053 94.4024 288.978C83.4622 286.097 67.0997 307.24 60.6627 329.353V285.228C62.5483 282.301 65.6369 278.461 70.5744 274.439C79.7967 266.928 88.2859 257.29 80.9285 255.351C74.5433 253.669 65.2279 264.972 60.6627 277.72V263.419C61.4176 258.995 62.4839 252.676 65.4106 246.216C72.1934 231.249 75.8578 215.827 66.9147 216.975C57.9635 218.123 52.1597 244.781 57.0546 265.246V272.605C53.7477 257.629 42.4042 242.119 34.9997 244.069C27.6423 246.007 36.1315 255.645 45.3538 263.157C52.3734 268.874 55.6585 274.226 57.0546 277.104V311.864C51.7518 288.163 33.8196 263.699 22.1039 266.786C10.4295 269.86 23.8998 285.155 38.533 297.072C49.5904 306.079 54.8128 314.517 57.0546 319.108V360.791C51.3864 337.522 33.9127 314.04 22.421 317.068C10.7466 320.143 20.7583 331.321 37.2036 344.84C48.3793 354.027 54.3659 363.723 57.0546 368.994V388.628C58.3588 388.993 59.5803 388.991 60.6627 388.628V380.815C62.9504 376.188 68.1775 367.846 79.1015 358.95C93.7336 347.03 107.204 331.735 95.5296 328.66Z" fill="#FF914C"/>
</svg>
