<svg width="43" height="42" viewBox="0 0 43 42" fill="none" xmlns="http://www.w3.org/2000/svg">
<g clip-path="url(#clip0_2250_29423)">
<path fill-rule="evenodd" clip-rule="evenodd" d="M21.4998 3.5C19.1792 3.5 16.9536 4.42187 15.3127 6.06282C13.6717 7.70376 12.7498 9.92936 12.7498 12.25C12.7498 14.5706 13.6717 16.7962 15.3127 18.4372C16.9536 20.0781 19.1792 21 21.4998 21C23.8205 21 26.0461 20.0781 27.687 18.4372C29.328 16.7962 30.2498 14.5706 30.2498 12.25C30.2498 9.92936 29.328 7.70376 27.687 6.06282C26.0461 4.42187 23.8205 3.5 21.4998 3.5ZM16.2498 22.75C13.3396 22.75 10.5413 24.0765 8.9016 26.075C8.0686 27.09 7.4841 28.3448 7.43335 29.736C7.38085 31.157 7.8936 32.543 8.9506 33.7523C11.5283 36.701 15.6426 38.5 21.4998 38.5C27.3588 38.5 31.4731 36.701 34.0491 33.7523C35.1078 32.543 35.6188 31.157 35.5681 29.736C35.5156 28.3448 34.9311 27.09 34.0981 26.075C32.4601 24.08 29.6618 22.75 26.7498 22.75H16.2498Z" fill="url(#paint0_linear_2250_29423)"/>
</g>
<defs>
<linearGradient id="paint0_linear_2250_29423" x1="21.4998" y1="3.5" x2="21.4998" y2="38.5" gradientUnits="userSpaceOnUse">
<stop stop-color="#F12811"/>
<stop offset="1" stop-color="#F5B93D"/>
</linearGradient>
<clipPath id="clip0_2250_29423">
<rect width="42" height="42" fill="white" transform="translate(0.5)"/>
</clipPath>
</defs>
</svg>
